<?xml version="1.0" standalone="no"?>
<!DOCTYPE svg PUBLIC "-//W3C//DTD SVG 1.1//EN" "http://www.w3.org/Graphics/SVG/1.1/DTD/svg11.dtd" >
<svg xmlns="http://www.w3.org/2000/svg">
<metadata></metadata>
<defs>
<font id="azeroth_cyrillicregular" horiz-adv-x="178" >
<font-face units-per-em="1000" ascent="800" descent="-200" />
<missing-glyph horiz-adv-x="397" />
<glyph unicode="&#xd;" horiz-adv-x="397" />
<glyph unicode=" "  horiz-adv-x="397" />
<glyph unicode="&#x09;" horiz-adv-x="397" />
<glyph unicode="&#xa0;" horiz-adv-x="397" />
<glyph unicode="!" horiz-adv-x="138" d="M132 811q-5 -11 -8 -18q-12 -36 -14 -217q2 217 2 -239q0 -33 -2 -107q-2 -68 -2 -106l1 -28q3 -7 7 -30q4 -18 -19 -37t-51 -5t-28 50q0 72 1 216t1 215q0 40 3 117.5t3 117.5q0 42 2 42q-29 3 -11 -5q1 28 107 49zM69 -23q14 0 27.5 -9t21 -26t7.5 -35t-7.5 -34.5 t-20.5 -25.5t-28 -9q-14 0 -27.5 9t-21 25.5t-7.5 34.5t7.5 35t21 26t27.5 9z" />
<glyph unicode="&#x22;" horiz-adv-x="318" d="M292 616q0 -8 -1 -10q-6 -54 -65 -90h-11v11q37 26 37 50q0 20 -23 39.5t-43 19.5q1 0 -23 -6l-6 6q4 9 21 15t30 25q1 7 11.5 26.5t15.5 19.5q3 0 25 -28.5t25 -34.5q7 -17 7 -43zM147 622q0 -8 -1 -10q-6 -54 -65 -90h-11v11q37 26 37 50q0 20 -23 39.5t-43 19.5 q1 0 -23 -6l-7 6q5 8 22 14.5t30 25.5q1 7 11.5 26.5t15.5 19.5q3 0 25 -28.5t25 -34.5q7 -17 7 -43z" />
<glyph unicode="#" horiz-adv-x="818" d="M380 802q-46 -12 -48 -20q-11 -40 -12 -243q1 243 1 -268q0 -36 -1 -119q-2 -76 -2 -118l1 -32q2 -7 6 -32q3 -22 23 -35q17 -10 33 -19v-9q-3 -9 -15 -9q-8 0 -24 4t-24 4q-28 0 -75.5 -29t-51.5 -29q-6 0 -9 6q4 12 36 52q24 31 24 72q0 80 1 241t1 241q0 45 2.5 131.5 t2.5 130.5q0 48 -25 48q-24 3 -9 -5l-26 31q53 0 185 23zM634 808q-46 -12 -48 -20q-11 -40 -12 -243q1 243 1 -268q0 -36 -1 -119q-2 -76 -2 -118l1 -32q2 -7 6 -32q3 -22 23 -35q17 -10 33 -19v-9q-3 -9 -15 -9q-8 0 -24 4t-24 4q-28 0 -75.5 -29t-51.5 -29q-6 0 -9 6 q4 12 36 52q24 31 24 72q0 80 1 241t1 241q0 45 2.5 131.5t2.5 130.5q0 48 -25 48q-24 3 -9 -5l-26 31q53 0 185 23zM806 521h-14q3 0 -58.5 27.5t-106.5 27.5q-19 0 -84 -10q-70 -11 -73 -18q-16 0 -70 -5.5t-91 -5.5q-8 0 -13 -5q-66 -2 -91 -5q-51 -7 -87 -26 q-7 -5 -47.5 -39.5t-45.5 -34.5q-13 0 -13 13q0 8 42 58q26 31 50 82l8 22q7 16 12 16q14 0 22 -23q29 -35 111 -35q79 0 212 15q159 18 196 41q20 12 28 36q10 28 20 38l16 -12q9 -15 18 -50.5t22 -50.5t37 -44v-12zM803 194h-14q3 0 -58.5 27.5t-106.5 27.5q-19 0 -84 -10 q-70 -11 -73 -18q-16 0 -70 -5.5t-91 -5.5q-8 0 -13 -5q-66 -2 -91 -5q-51 -7 -87 -26q-7 -5 -47.5 -39.5t-45.5 -34.5q-13 0 -13 13q0 8 42 58q26 31 50 82l8 22q7 16 12 16q14 0 22 -23q29 -35 111 -35q79 0 212 15q159 18 196 41q20 12 28 36q10 28 20 38l16 -12 q9 -15 18 -50.5t22 -50.5t37 -44v-12z" />
<glyph unicode="$" horiz-adv-x="626" d="M703 202q0 -92 -64 -181q-60 -84 -147 -122q-37 -16 -54 -16h-52q-95 0 -184 46q-106 56 -106 143q0 80 88 136q78 49 79.5 36.5t-39.5 -56t-41 -114.5q0 -68 70 -114q62 -41 133 -41q18 0 45 3q72 5 139.5 69.5t67.5 136.5q0 125 -109 171q-102 28 -204 57 q-110 42 -110 159q0 81 54.5 139t130.5 42q22 16 57.5 3t54.5 -13q13 0 32 24q13 17 26 35q12 -79 41 -236q-21 5 -50 45q-34 47 -63 67q-52 34 -137 34q-87 0 -87 -78q0 -30 111 -64q145 -43 207 -88q111 -80 111 -223zM368 -117l6 -45v-77l42 -61l-6 52l3 57l9 45l36 32z M435 703l-6 44v76l-40 60l5 -51l-2 -56l-9 -45l-35 -31z" />
<glyph unicode="%" horiz-adv-x="673" d="M329 600q0 -107 -94 -145q-35 -15 -44 -15h-78q-40 0 -76 50q-34 47 -34 88q0 54 27 95t77 59q40 15 63 15q59 0 108 -43q51 -46 51 -104zM256 589q0 47 -25 86q-28 46 -73 46q-38 0 -61 -52q-18 -40 -18 -85q0 -33 8 -52q14 -27 34 -47q26 -25 51 -25q4 0 13 1t14.5 1 t24.5 23q32 39 32 104zM662 172q0 -107 -94 -146q-36 -14 -45 -14h-78q-39 0 -75 49q-35 47 -35 88q0 55 27 96t77 59q41 15 63 15q59 0 108 -43q52 -46 52 -104zM588 160q0 47 -25 87q-28 45 -72 45q-39 0 -62 -51q-18 -40 -18 -85q0 -34 9 -52q13 -27 33 -48 q26 -25 51 -25q4 0 13.5 1.5t14.5 1.5t24 22q32 40 32 104zM202 37q-11 0 -46.5 -18t-41.5 -28l-24 14q48 43 208 373q28 58 56 156q31 108 31 163q0 8 -1 14q29 38 50 38q19 0 56 7.5t56 7.5l4 -1q-3 -4 0 -17q-37 -34 -83 -151q-32 -87 -65 -174q-23 -50 -68 -152 q-25 -68 -77 -206q-15 -26 -55 -26z" />
<glyph unicode="&#x26;" horiz-adv-x="667" d="M246 759l73 -66q0 -22 -20 -45l-8 3l-30 42l-16 -5q-113 22 -123 -128l2 -21q35 -98 115 -230v-4l-43 7h-5q-36 66 -87 6q-26 -90 -6 -129v-15q0 -77 85 -156q277 -136 286 190l21 54l13 -7q-8 0 7 -8l-10 -149q-10 -162 -78 -169q-100 -81 -265 -9q-101 74 -137 215v95 q39 187 97 167h4q-61 89 -61 177q2 51 16 82q57 103 150 103h20zM660 263q0 -34 -45.5 -62t-79.5 -5q-39 12 -84 5q-20 12 -66 50q-28 7 -54 3q-14 8 -48 -11q27 57 86 58q148 -38 157 -42q44 -23 87 -23q21 0 21 33q0 6 -3 24q10 0 19.5 -11t9.5 -19z" />
<glyph unicode="'" d="M147 622q0 -8 -1 -10q-6 -54 -65 -90h-11v11q37 26 37 50q0 20 -23 39.5t-43 19.5q1 0 -23 -6l-7 6q5 8 22 14.5t30 25.5q1 7 11.5 26.5t15.5 19.5q3 0 25 -28.5t25 -34.5q7 -17 7 -43z" />
<glyph unicode="(" horiz-adv-x="254" d="M113 -175q-100 179 -100 437q0 129 39 250q38 113 99 185q40 47 67 47q5 0 6.5 -49.5t-10.5 -49.5q-42 0 -74 -155q-27 -129 -27 -228q0 -128 30 -275q35 -168 86 -219q19 -20 1 -69.5t-117 126.5z" />
<glyph unicode=")" horiz-adv-x="240" d="M17 -232q47 51 79 219q27 147 27 275q0 99 -24 228q-29 155 -68 155q-11 0 -9.5 49.5t5.5 49.5q24 0 62 -47q55 -72 90 -185q37 -121 37 -250q0 -258 -93 -437q-90 -176 -107 -126.5t1 69.5z" />
<glyph unicode="*" horiz-adv-x="295" d="M6 823q47 -10 69 -34q17 -22 17 -64l-4 -39h44l1 35v37l1 40q-15 5 -15 6v13l2 2h58l1 -2v-13l-11 -6v-112h1l22 -1l19 2l-2 12v14q0 81 62 109l7 1h1q-23 -18 -32 -49q-9 -33 -9 -59q0 -12 4 -29h34l2 -2v-12l-2 -2h-252l-2 2v12l2 2h30q7 20 7 37v10q0 52 -41 81 q-12 8 -14 8v1zM6 543q2 0 14 6q41 25 41 68v9q0 14 -7 31h-30l-2 1v11l2 1h252l2 -1v-11l-2 -1h-34q-4 -15 -4 -25q0 -22 9 -49q9 -26 32 -41h-1l-7 1q-62 23 -62 91v12l2 10l-19 2l-22 -1h-1v-94l11 -5v-12l-1 -1h-58l-2 1v12q0 1 15 5l-1 34v30l-1 30h-44l4 -33 q0 -35 -17 -54q-22 -20 -69 -28v1z" />
<glyph unicode="+" horiz-adv-x="429" d="M419 236h-14q-46 55 -83 71q-13 0 -36.5 -5t-32.5 -6l-7 -7q-5 -26 -5 -14q0 -75 5 -80q14 -3 24 -29q12 -30 69 -48l2 -20h-3q-25 0 -73.5 6t-72.5 6q-22 0 -53 -6t-55 -6h-10l9 19q21 5 45.5 31t28.5 49q14 8 7 13v52q2 6 -12 6q-53 0 -88 -6q-39 -7 -59 -66l2 141 q98 -44 129.5 -34t31.5 19q0 14 -18 82q-29 34 -51 37q-9 10 -36 15v18q144 -20 225 28q11 -7 11 -16q-53 -100 -53 -131q0 -30 16 -30q36 0 79 22q32 29 65 62q0 -8 -3.5 -22.5t-3.5 -20.5q0 -30 20 -130z" />
<glyph unicode="," d="M144 7q0 -8 -1 -10q-6 -53 -65 -90h-11v11q37 26 37 50q0 20 -23 39.5t-44 19.5q2 0 -22 -6l-7 7q5 8 22 14t30 25q1 7 11.5 26.5t15.5 19.5q2 0 24.5 -28.5t24.5 -33.5q8 -17 8 -44z" />
<glyph unicode="-" horiz-adv-x="923" d="M868 327q0 -30 -72 -53q-59 -20 -98 -20q-45 0 -133 20.5t-133 20.5q-24 0 -70 9.5t-69 9.5q-53 0 -89 -13q-15 2 -23 2q-21 0 -42 -9q-25 -12 -25 -30l16 -20h-21l-8 5q-4 14 -4 22q0 37 69 67q58 26 102 26q198 0 265 -15q58 -15 116 -31q67 -17 118 -17q41 0 74 14 l7 7l-5 18l16 7q9 -9 9 -20zM55 192q6 2 12 9z" />
<glyph unicode="." d="M39 53q1 0 -22 -6l-7 7q5 8 22 14t30 25q1 7 11.5 26.5t15.5 19.5q4 0 32.5 -38.5t28.5 -45.5q0 -8 -64 -55q0 19 -14 36t-33 17z" />
<glyph unicode="/" horiz-adv-x="490" d="M123 37q-12 0 -47 -18t-42 -28l-24 14q49 43 209 373q28 58 56 156q31 108 31 163q0 8 -2 14q30 38 51 38q19 0 56 7.5t56 7.5l4 -1q-3 -4 0 -17q-37 -34 -83 -151l-66 -174q-23 -50 -68 -152q-25 -68 -76 -206q-15 -26 -55 -26z" />
<glyph unicode="0" horiz-adv-x="524" d="M382 -48q-9 -4 -24 -17.5t-23 -18.5q-34 -17 -65 -17q-70 0 -145 73t-99 166q-14 57 -14 127q0 254 92 389q7 11 23.5 26.5t24.5 17.5q53 51 109 51q37 0 79 -15q50 -18 74 -45q19 -23 50 -99t37 -112q7 -50 7 -156q0 -8 -7 -57q-19 -118 -39 -170.5t-80 -142.5zM249 705 q-86 0 -126 -131q-30 -97 -30 -238q0 -119 42 -221q45 -105 119 -147l25 -15h34q2 0 20 16.5t21 18.5l45 66q12 20 26 105q12 79 12 113q0 51 -5 114q-9 101 -60 204q-58 115 -123 115z" />
<glyph unicode="1" horiz-adv-x="372" d="M313 741q-52 -49 -54 -232q2 219 2 -241q0 -33 -2 -107q-2 -69 -2 -107l1 -28q3 -7 9 -30q5 -19 35 -31q25 -9 49 -17v-8q-5 -8 -23 -8q-12 0 -35.5 3.5t-35.5 3.5q-43 0 -113.5 -26t-76.5 -26q-10 0 -14 5q6 11 54 47q36 28 36 65q0 72 1.5 217t1.5 217q0 40 1.5 40 t1.5 55q-6 22 -8 -5q14 58 -29 16q-25 0 -98 -22q46 66 73 95q81 71 141 131q100 7 85 -7z" />
<glyph unicode="2" horiz-adv-x="578" d="M82 -93q37 0 97 12q65 13 92 29q67 40 113 173q40 117 40 218q0 78 -35 180q-42 123 -98 123q-17 0 -49.5 -16.5t-47.5 -30.5t-37.5 -53.5t-36.5 -55.5q-7 15 -7 32q28 48 32 122q5 110 8 127q4 -4 29 -52q14 -30 46 -30q7 0 29 17.5t29 17.5q34 0 89 -37 q80 -57 131 -146q52 -96 52 -198q0 -204 -134 -346q-131 -139 -311 -139zM10 -212q19 34 29 52t17 60t14 59l13 14q7 -11 15 -44q6 -29 22 -43q29 -27 153 -48q103 -18 165 -18q64 0 87 41q6 27 17 27q4 0 9 -19l6 -26q19 -60 39 -97q33 -59 33 -68q0 -16 -10 -16 q-4 0 -35.5 41t-37.5 47q-28 22 -67 31q-20 3 -71 6q-4 6 -11 6q-28 0 -70.5 6.5t-54.5 6.5q-2 8 -57 21q-51 12 -65 12q-36 0 -83.5 -32.5t-45.5 -32.5h-11v14z" />
<glyph unicode="3" horiz-adv-x="500" d="M169 764q165 0 213 -122l3 -35q0 -57 -69 -135v-3h16q116 0 147 -106l9 -41q0 -177 -211 -327q-175 -93 -222 -93v4l-30 -10q-42 0 -103 19v10h28q96 0 313 118q108 82 108 202q0 94 -58 115q-61 42 -83 42l-58 -7l-3 4v3q100 104 100 186q0 79 -117 118l-75 7l-77 -10 v10z" />
<glyph unicode="4" horiz-adv-x="641" d="M142 230q0 148 91 290q64 146 159 174q-5 6 -5 8q4 -3 -50 -18q-71 -23 -129 -24q-6 -11 45 54q42 54 48 75h13q10 -59 60 -59q10 0 29.5 -2t29.5 -2q34 0 63 9q48 6 97 14q5 0 17 -8q-2 -7 -17 -12q-18 -6 -25 -13q-12 -13 -12 -41q0 -15 3.5 -46.5t3.5 -47.5 q0 -15 -2.5 -45t-2.5 -45q0 -30 4 -253.5t4 -253.5q0 -18 10 -41q11 -29 26 -27q-1 -5 0 -5q2 -2 2 -5q0 -1 -2 -1q-11 0 -33.5 6.5t-33.5 6.5q-34 0 -100 -22q3 12 18 19q19 7 26.5 20.5t14.5 432.5q8 85 6 210l-20 129q-197 -113 -270 -424q351 16 288 -57q-241 3 -305 7 q-51 -26 -51 -3z" />
<glyph unicode="5" horiz-adv-x="471" d="M-50 -34q12 23 37 23q14 0 28 -9.5t14 -25.5q0 -7 -3 -10q-18 8 -22 8q-14 0 -28.5 -14.5t-14.5 -29.5q0 -66 159 -66q63 0 125 58q56 53 91.5 133t35.5 150q0 7 1 22v22q0 133 -67 192q-28 23 -58 23q-71 0 -119 -43q-31 -34 -62 -69q-3 -2 -4 -3q-1 0 -2 2t-4 2t-6 -1 q8 8 17 41q6 22 11 43q5 13 5 47q1 31 6 42q9 -19 17 -38q11 -21 32 -21q16 0 46.5 11t46.5 11q106 0 171 -82q63 -79 63 -198q0 -19 -8 -64q-9 -48 -15 -63q-45 -98 -124 -166q-83 -72 -176 -83l-47 -5q-8 -1 -16 -1q-54 0 -98 33t-44 80q0 29 12 49zM453.5 711.5 q-11.5 -14.5 -17.5 -14.5q-7 0 -9 5q3 4 3 9q0 20 -42 31q-33 9 -72 9q-4 0 -169 -6q25 -31 25 -61q0 -7 -1.5 -20.5t-1.5 -20.5l2 -190q1 -7 -40.5 -11t-40.5 2q3 49 2 74q3 105 3 155q0 30 -15 60q-18 35 -51 49h15q5 -6 39 -16.5t45 -10.5q33 0 99 6t100 6q42 0 82 -7 q56 -10 56 -29q0 -5 -11.5 -19.5z" />
<glyph unicode="6" horiz-adv-x="494" d="M663 607q-15 41 -114 79q-86 35 -133 35q-31 0 -83 -12q-56 -13 -78 -29q-58 -39 -97 -172q-35 -116 -35 -217q0 -77 30 -179q37 -122 85 -122q14 0 42 16t40.5 30t31.5 53.5t32 55.5q6 -15 6 -32q-25 -48 -28 -121q-44 -45 -71 -45q-6 0 -24.5 -17.5t-24.5 -17.5 q-30 0 -76 37q-69 57 -112 145q-45 96 -45 197q0 203 114 345q112 138 267 138q139 0 251 -112q29 -29 29 -44q0 -8 -7 -11zM93 117q0 145 95 198q37 20 46 20h79q40 0 77 -68q35 -63 35 -119q0 -74 -27.5 -129.5t-78.5 -80.5q-41 -20 -64 -20q-60 0 -110 59q-52 61 -52 140 zM167 133q0 -64 26 -117q28 -62 74 -62q39 0 62 69q19 55 19 116q0 46 -9 71q-13 36 -34 64q-26 34 -52 34q-4 0 -13.5 -1.5t-14.5 -1.5t-25 -31q-33 -53 -33 -141z" />
<glyph unicode="7" horiz-adv-x="583" d="M53 -68q0 226 98 445q101 224 239 291q-6 2 -12 2q-66 0 -209 -42l-154 -72q7 19 63 118q45 82 51 115h14q12 -90 192 -90q12 0 33 -3.5t31 -3.5q37 0 52 7q52 10 104 21q6 1 18 -11q-2 -11 -18 -18q-19 -10 -27 -21q-13 -20 -78 -6q-213 -174 -279 -455q-9 -26 -20 -132 q-12 -100 -12 -140z" />
<glyph unicode="8" horiz-adv-x="474" d="M344 -66q-8 -2 -21.5 -11.5t-20.5 -11.5q-31 -12 -59 -12q-63 0 -131 48.5t-89 109.5q-13 38 -13 85q0 167 83 257q6 7 21 17.5t23 11.5q48 34 98 34q33 0 72 -10q44 -12 66 -30q17 -15 45.5 -65.5t32.5 -74.5q7 -33 7 -103q0 -5 -7 -37q-16 -79 -34.5 -113.5 t-72.5 -94.5zM224 433q-77 0 -114 -87q-27 -65 -27 -158q0 -79 38 -146q41 -69 108 -97l22 -10h31q2 0 18 11t19 12q14 15 40 44q11 13 24 69q11 52 11 75q0 34 -5 75q-8 67 -54 135q-52 77 -111 77zM281 453q-5 -2 -13 -7t-13 -7q-18 -6 -35 -6q-38 0 -79 27.5t-53 62.5 q-8 22 -8 49q0 96 50 147q4 4 13 10t13 7q29 19 59 19q20 0 43 -6q27 -6 40 -17q10 -9 27 -37.5t20 -42.5q4 -19 4 -59q0 -3 -4 -21q-10 -45 -21 -65t-43 -54zM208 738q-46 0 -68 -49q-16 -37 -16 -91q0 -45 23 -83q24 -40 64 -56l14 -6h18q2 0 11.5 6t10.5 7l25 25 q6 8 14 40q7 30 7 43q0 20 -3 43q-5 39 -33 78q-31 43 -67 43z" />
<glyph unicode="9" horiz-adv-x="474" d="M-193 48q14 -41 112 -80q84 -35 131 -35q31 0 82 12q55 13 77 29q57 40 96 173q34 117 34 218q0 78 -29 180q-37 123 -84 123q-14 0 -41.5 -16.5t-40 -30.5t-31.5 -53.5t-31 -55.5q-6 15 -6 32q24 48 27 122q44 45 70 45q6 0 24.5 17.5t24.5 17.5q29 0 75 -37 q68 -57 111 -146q44 -96 44 -198q0 -204 -113 -346q-111 -139 -263 -139q-137 0 -248 113q-29 29 -29 44q0 8 8 11zM369 540q0 -146 -94 -199q-36 -20 -45 -20h-78q-40 0 -76 68q-35 64 -35 120q0 74 27 130t78 81q40 20 63 20q59 0 109 -59q51 -62 51 -141zM296 524 q0 64 -26 118q-28 62 -73 62q-39 0 -62 -70q-18 -55 -18 -116q0 -46 9 -71q13 -37 34 -65q26 -34 51 -34q4 0 13.5 1.5t14.5 1.5t24 31q33 54 33 142z" />
<glyph unicode=":" d="M43 244q1 0 -22 -6l-7 7q5 8 22 14t30 25q1 7 11.5 26.5t15.5 19.5q4 0 32.5 -38.5t28.5 -45.5q0 -8 -64 -55q0 19 -14 36t-33 17zM39 53q1 0 -22 -6l-7 7q5 8 22 14t30 25q1 7 11.5 26.5t15.5 19.5q4 0 32.5 -38.5t28.5 -45.5q0 -8 -64 -55q0 19 -14 36t-33 17z" />
<glyph unicode=";" d="M144 7q0 -8 -1 -10q-6 -53 -65 -90h-11v11q37 26 37 50q0 20 -23 39.5t-44 19.5q2 0 -22 -6l-7 7q5 8 22 14t30 25q1 7 11.5 26.5t15.5 19.5q2 0 24.5 -28.5t24.5 -33.5q8 -17 8 -44zM43 244q1 0 -22 -6l-7 7q5 8 22 14t30 25q1 7 11.5 26.5t15.5 19.5q4 0 32.5 -38.5 t28.5 -45.5q0 -8 -64 -55q0 19 -14 36t-33 17z" />
<glyph unicode="&#x3c;" horiz-adv-x="458" d="M452 534l-41 -117l-87 -87l-90 -60l55 -44l86 -100l74 -121l-173 125l-135 93l-131 69l199 68l128 80l90 68z" />
<glyph unicode="=" horiz-adv-x="563" d="M439 209h-68q-55 8 -58 1q-13 0 -56 1t-72 1q-7 0 -11 -5q-52 -2 -72 -5q-41 -7 -70 -26q-5 -5 -17.5 11.5t6.5 67.5q3 11 7 22q5 16 9 16q11 0 18 -23q23 -35 88 -35q63 0 169 2q127 -11 157 12q16 12 22 36q8 28 16 38l13 -12q7 -15 14 -50.5t-26.5 -43.5t-68.5 -8z M445 380h-68q-55 8 -58 1q-13 0 -56 1t-72 1q-7 0 -11 -5q-52 -2 -72 -5q-41 -7 -70 -26q-5 -5 -17.5 11.5t6.5 67.5q3 11 7 22q5 16 9 16q11 0 18 -23q23 -35 88 -35q63 0 169 2q127 -11 157 12q16 12 22 36q8 28 16 38l13 -12q7 -15 14 -50.5t-26.5 -43.5t-68.5 -8z" />
<glyph unicode="&#x3e;" horiz-adv-x="456" d="M35 502l90 -68l128 -80l199 -69l-131 -68l-135 -94l-173 -125l74 121l86 101l55 44l-90 60l-87 87l-41 117z" />
<glyph unicode="?" horiz-adv-x="525" d="M13 616q0 13 22 38q85 98 191 98q117 0 202 -120q87 -123 87 -300q0 -88 -34 -171q-33 -77 -85 -127q-36 -32 -58 -32q-5 0 -19 15.5t-19 15.5q-20 0 -30 -26q-16 -41 -18 -45q-2 15 -5 110q-3 64 -21 105q0 15 4 28q10 -14 24.5 -48t24 -46.5t21.5 -26.5t23 -14 q16 0 54 106q23 89 23 156q0 88 -26 189q-30 74 -74 112q11 14 -31 25q-39 20 -63 20q-36 0 -101 -2q-76 -34 -86 -69q-6 2 -6 9zM303 -27q12 0 23 -9t17 -26t6 -35q0 -19 -6 -35.5t-17 -26t-23 -9.5t-23 9.5t-17 26t-6 35.5q0 18 6.5 35t17.5 26t22 9z" />
<glyph unicode="@" horiz-adv-x="748" d="M638 432q20 -153 -89 -206q-49 -20 -61 -20h-106q-54 0 -103 68q-47 64 -47 120q0 74 36.5 130t105.5 81q55 20 86 20q80 0 147 -59q35 -53 31 -134zM577 409q0 64 -34 118q-38 62 -99 62q-53 0 -84 -70q-25 -55 -25 -116q0 -46 12 -71q18 -37 46 -65q35 -34 69 -34 q6 0 18.5 1.5t19.5 1.5t33 31q44 54 44 142zM639 601l6 -435h-51v435h45zM736 677q-115 26 -178 26q-41 0 -110 -9q-74 -9 -104 -21q-77 -30 -129 -130q-46 -88 -46 -164q0 -58 40 -135q48 -92 189 -97q19 0 102.5 10.5t89.5 62.5t33 40.5t23 -35.5t11 -80q-6 -82 -9 -95 q-5 3 -33 39q-17 22 -66 3q-8 0 -72.5 -1.5t-72.5 -1.5q-117 5 -178 32q-92 43 -149 110q-60 72 -60 148q0 153 152 260q149 104 355 104q185 0 212 -31q10 -10 0 -35z" />
<glyph unicode="A" horiz-adv-x="839" d="M1050 -354q0 -94 -127 -153q-103 -48 -210 -48h-61q-199 0 -365 110q-171 114 -232 298q-13 37 -25 73q-13 43 -13 75q0 208 139 409q143 206 338 268q-8 2 -17 2q-93 0 -224 -39l-218 -66q10 17 89 108q64 76 73 106h20q16 -83 200 -83q16 0 46 -3t45 -3q52 0 145 13 q74 9 148 19q8 1 26 -10q-3 -10 -26 -17q-27 -9 -38 -19q-19 -18 -19 -57q0 -22 5.5 -66.5t5.5 -66.5q0 -21 -3.5 -63.5t-3.5 -63.5q0 -43 4.5 -128.5t4.5 -128.5q0 -26 15 -59q18 -40 41 -38q-2 -7 0 -7q3 -2 3 -6q0 -2 -3 -2q-18 0 -52.5 9t-51.5 9q-51 0 -201 -30 q4 17 28 26q29 10 40 29t25 153q12 120 12 165q0 35 -95 35q-21 0 -61 -1q-64 -2 -152 -44q-94 -45 -121 -95q-13 -24 -29 -122q-16 -92 -16 -129q0 -202 147 -363q151 -167 350 -167h31q102 0 181 37q102 47 102 136q0 79 -49 124t-129 45q-47 0 -88 -29q-45 -31 -45 -76 q0 -30 24 -62q25 -35 54 -35q40 0 40 33q0 14 -40 39q30 29 51 29q15 0 32.5 -17.5t17.5 -32.5q0 -31 -53 -54q-44 -18 -80 -18q-53 0 -102 28q-58 33 -58 81q0 60 90 103q77 37 144 37q95 0 186 -50q105 -60 105 -147zM612 492v90q0 21 -13 48q-11 23 -23 45 q-94 -12 -183 -86q-80 -66 -131 -158q107 40 136 49q79 24 142 24q31 0 72 -12z" />
<glyph unicode="B" horiz-adv-x="748" d="M730 369q0 -154 -214 -287q-13 -9 -104 -42q-109 -41 -158 -41q-12 0 -31 -5q-22 -6 -30 -7q-3 -1 -63 -11q-39 -7 -63 -7q-4 0 -29 1l-2 10q19 6 48 26q46 61 46 155v423q0 108 -81 108q-11 0 -25 -2v13q38 10 66 10q5 0 13.5 5t13.5 5q31 0 112.5 25.5t117.5 25.5 q82 0 156 -28q98 -38 98 -105q0 -46 -43 -87q-8 -8 -80 -63q7 -2 21 0q19 2 22 2q97 0 155 -32q17 -10 35.5 -41.5t18.5 -50.5zM478 614q0 53 -61 94q-55 37 -111 37q-26 0 -36 -6q-14 -8 -14 -32q0 -12 3.5 -35.5t3.5 -35.5q0 -199 -7 -211h18q15 10 42 20q34 13 44 18 q44 21 79 62q39 46 39 89zM611 292q0 5 -1.5 15t-1.5 15q0 54 -83 93q-70 33 -131 33q-24 0 -72 -17q-55 -18 -59 -35q-8 -35 -10 -81q-1 -31 0 -84q2 -65 2 -81q0 -12 5 -71q4 -54 2 -63h17q21 0 50 12q24 9 48 19q234 81 234 245z" />
<glyph unicode="C" horiz-adv-x="719" d="M909 -120q0 -72 -73.5 -122.5t-164.5 -50.5q-14 0 -27 1l-79 8q-155 16 -295 127q-131 104 -207 255q-11 23 -25 96q-13 69 -13 99q0 182 105 303q109 126 286 126q28 0 79 -16.5t78 -16.5q34 0 53 31q14 30 28 59q8 -17 10 -65q1 -51 8 -71q9 -33 19 -66q15 -51 28 -63 q-5 1 -9 1q-6 0 -7.5 -3t-2.5 -3q-2 1 -7 5l-104 106q-80 66 -200 66q-50 0 -96 -36q-113 -90 -113 -295v-33q1 -23 1 -34q0 -107 60 -230.5t154 -203.5q103 -89 209 -89q268 0 268 101q0 23 -25 45t-49 22q-7 0 -36 -12q-5 5 -5 16q0 24 23 38.5t47 14.5q42 0 63 -36 q19 -30 19 -74z" />
<glyph unicode="D" horiz-adv-x="725" d="M711 343q0 -26 -11 -85q-13 -63 -24 -80q-52 -83 -109 -122t-152 -57q-63 -11 -79 -11q4 0 -51 8q-80 11 -151 11q-19 0 -55.5 -10.5t-43.5 -10.5q-4 0 -4 8t-1 10q23 -3 41 37q15 34 15 60q0 86 6.5 258.5t6.5 258.5q0 38 -20 57q-11 10 -38 19q-22 8 -24 17q3 3 4 8 t5 5q62 -6 125 -12q75 -7 125 -7q17 0 51.5 3.5t51.5 3.5q156 0 247 -107q85 -102 85 -262zM589 343q0 82 -32 177q-39 117 -98 138q-50 18 -86 18q-18 0 -108 -12q-12 -23 -23 -45q-12 -27 -12 -49l-1 -243q0 -38 13 -155q14 -127 23 -140q18 -25 85 -20h7q122 8 182 109 q50 85 50 222z" />
<glyph unicode="E" horiz-adv-x="670" d="M657 359q0 -51 -54.5 -92.5t-106.5 -41.5q-40 0 -91 41q-24 18 -80 75q-40 40 -52 40q-17 0 -72 -51q7 38 54.5 79t85.5 41q25 0 70 -34q73 -56 84 -63q54 -34 106 -34q25 0 25 50q0 8 -3 36q12 0 23 -16.5t11 -29.5zM904 -8q0 -15 -38 -44q-149 -113 -334 -113 q-206 0 -355 139q-152 142 -152 346q0 102 60 198q57 89 149 146q61 37 101 37q8 0 32.5 -17.5t32.5 -17.5q36 0 53 30q28 48 33 52q3 -17 9 -127q4 -74 37 -122q0 -17 -8 -32q-17 16 -42.5 55.5t-42.5 53.5t-54 30.5t-56 16.5q-64 0 -112 -123q-40 -102 -40 -180 q0 -101 46 -218q52 -133 129 -173q30 -16 104 -29q69 -12 110 -12q63 0 178 35q132 39 151 80q9 -3 9 -11z" />
<glyph unicode="F" horiz-adv-x="477" d="M289 658q-17 -61 -17 -145q0 -9 1 -54q9 -14 37 -14q99 0 154 84q-8 -40 -15 -111q-7 -77 -13 -110q-16 12 -33.5 46t-30.5 46q-25 22 -68 22q-14 0 -31 -3v-216q0 -67 20 -117q28 -67 85 -69q1 -15 -4 -17q-33 0 -97.5 9.5t-97.5 9.5q-19 0 -55 -6.5t-53 -6.5 q29 35 30 37q16 21 22 42q19 68 19 336v113q0 70 -19 99q-13 20 -77 66l1 19h3q28 0 83 -9t83 -9q38 0 113.5 5.5t112.5 5.5q30 0 62 39q12 14 43 64q26 -88 71 -266q-82 96 -329 110z" />
<glyph unicode="G" horiz-adv-x="664" d="M450 -458q-39 -17 -57.5 -35.5t-36.5 -58.5q-43 32 -68.5 81.5t-25.5 102.5q0 90 75 197q65 86 130 173h-101q-132 0 -229 128q-90 118 -90 255q0 92 66 176q57 73 147 121q62 33 104 33q8 0 32.5 -15.5t33.5 -15.5q29 0 43 12q9 6 20.5 26.5t23.5 31.5q3 -14 9 -109 q3 -62 38 -105l-6 -23q-18 12 -43.5 46.5t-43 47t-56 27t-57.5 14.5q-65 0 -116 -104q-43 -90 -43 -163q0 -98 52 -210q62 -133 147 -133h35q50 0 101 47q47 42 66 92q-42 0 -88 26q-22 12 -68 48q-34 26 -47 26q-17 0 -69 -41q12 34 57 65t82 31q16 0 61 -28 q52 -32 133 -46q-3 -32 -30 -102q-28 -76 -46 -91q-87 -74 -166 -176q-101 -132 -101 -211q0 -61 35.5 -97.5t96.5 -42.5z" />
<glyph unicode="H" horiz-adv-x="655" d="M631 0h-246q-10 13 -11 34q22 1 48 32q23 29 26.5 54.5t3.5 80.5q0 19 1 52t1 46q0 60 -21 84q-26 30 -99 30q-85 0 -109 -34q-19 -27 -19 -115q0 -16 -1 -49v-50q0 -30 2 -46q3 -24 27.5 -54t46.5 -31q-1 -21 -11 -34h-246v41q18 13 35 27q23 18 26 33q7 35 8 91l2 92 q11 264 11 322q0 12 -54 60v40h245q10 -13 11 -34q-18 -1 -44 -24.5t-31 -41.5q-9 -29 -9 -165q0 -6 1 -13q9 2 52 21q31 13 54 13q21 0 50 -14q39 -18 49 -20q1 4 1 10q0 139 -9 168q-5 18 -31 41.5t-44 24.5q1 21 11 34h245v-40q-54 -48 -54 -60q0 -58 11 -322l2 -92 q1 -56 8 -91q3 -15 26 -33q17 -14 35 -27v-41z" />
<glyph unicode="I" horiz-adv-x="305" d="M282 684q-10 -1 -36 -30q-36 -38 -36 -173q0 -29 3.5 -87.5t3.5 -87.5q0 -22 -1.5 -64.5t-1.5 -64.5q0 -97 29 -129q11 -13 17 -18q12 -11 20 -12q-1 -12 -12 -22h-245v28q15 13 29 25q17 16 20 31q17 26 17 354q0 131 -14 188q-4 16 -20 31q-15 12 -30 25v28h246 q10 -10 11 -22z" />
<glyph unicode="J" horiz-adv-x="404" d="M395 -30q-4 -31 -57 -82q-98 -95 -185 -214q-90 -124 -175 -191t-172 -67q-69 0 -128 42q-64 47 -64 113q0 48 40.5 99.5t87.5 51.5q14 0 35 -17t26 -30l-4 -29q-11 8 -24 8q-30 0 -50 -32q-17 -28 -17 -60q0 -46 33.5 -76.5t79.5 -30.5q79 0 163 68q64 51 138 149 q53 75 106 151q-115 39 -115 241q0 73 4 219.5t4 219.5q0 195 -93 195q-13 0 -27 -4l2 27q12 1 19 1q20 0 70 -9t70 -9q40 0 106.5 12t107.5 11q-3 -3 -3 -6q-1 -5 3 -7q-32 -14 -79 -40q-43 -35 -55 -116q-5 -34 -5 -132q0 -39 -5 -107q-6 -76 -7 -107q-1 -16 1 -43 q1 -30 1 -43q0 -11 -2 -18q10 -62 29 -108q30 -72 71 -72q15 0 70 42z" />
<glyph unicode="K" horiz-adv-x="673" d="M1246 -169q-3 -8 -36 -22q-40 -17 -44 -20q-8 0 -37 -3q-22 -3 -36 -3q-307 0 -471 144q-39 34 -119 146q-29 40 -80 135q-49 90 -82 134q-18 17 -52 53q-55 -36 -58 -41.5t-3 -69.5q0 -21 -3 -63t-3 -63q0 -133 64 -136q-1 -12 -11 -22h-245v29q14 12 29 24q16 16 20 32 q17 27 17 353q0 140 -15 188q-5 18 -49 56v28h246q10 -9 11 -21q-33 -8 -51 -52q-14 -35 -14 -74q0 -31 2 -89q2 -61 3 -89q47 28 125 131q82 108 82 154q0 14 -6 24q35 6 133 6q28 0 72 15l5 -11q-64 -66 -129 -132q-76 -75 -140 -119q50 -58 108 -162q73 -131 96 -165 q61 -89 135 -143q219 -159 441 -159q24 0 95 7z" />
<glyph unicode="L" horiz-adv-x="274" d="M652 -92q0 -47 -86 -72q-62 -17 -127 -17q-51 0 -153 14t-153 14q-17 0 -69 -26t-60 -40h-23q50 35 78 123q24 74 24 147q0 126 -5 387q1 62 -3 184q-2 15 -50 56v28h246q10 -9 11 -22q-20 -1 -50.5 -34t-31.5 -52l-4 -472q0 -17 2.5 -51t2.5 -50q0 -74 -38 -153 q254 -13 260 -13q60 0 110 21q65 27 65 78q0 13 -5 22q4 12 15 12q9 0 26.5 -36t17.5 -48z" />
<glyph unicode="M" horiz-adv-x="880" d="M672 -82q-84 0 -94 6l-4 17q7 7 67 33q46 20 43 51q5 5 7 249l2 214q0 39 -4 65q-37 -54 -51 -104q-13 -17 -67 -110q-64 -111 -137 -241l-255 447q-5 -87 -5 -385q0 -127 7 -134q-3 -30 43 -50q60 -26 67 -33l-4 -18q-7 -3 -43 -3q-60 0 -85 -2q-17 0 -63 -11 q-40 -8 -63 -7h-5l-8 9v26q39 23 52 32q33 23 38 43q17 61 17 216q0 55 -2.5 149t-2.5 121q0 19 4 56t4 55q0 7 -23 25.5t-32 20.5q-25 8 -80 20l-5 28q9 5 21 5q29 0 110 -5q69 -4 111 -2q18 -24 36 -67q25 -62 29 -70q23 -45 69 -120q52 -83 71 -119q47 80 135 242 q4 8 27 68q16 41 34 65q21 -1 45 -1h151q5 0 15.5 3t15.5 3q8 0 15 -4l-5 -27q-27 -6 -80 -20q-9 -3 -32 -21t-23 -25q0 -18 4 -54.5t4 -54.5q0 -53 -1 -160.5t-1 -160.5q0 -118 13 -168q8 -27 91 -74v-27q-4 -5 -11 -5q6 0 -28 8q-30 6 -134 6z" />
<glyph unicode="N" horiz-adv-x="626" d="M524 224q0 -140 24 -216q10 -32 66 -85v-22q-4 0 -11 -1.5t-11 -1.5q-7 0 -21 5q-18 8 -22 8q-116 160 -188 289q-12 22 -62 129q-36 81 -70 124q-14 52 -54 109q-3 -38 -2 -96q2 -102 2 -96q0 -37 -1.5 -113t-1.5 -113q0 -114 6 -120q-3 -32 43 -51q60 -26 67 -33 l-4 -16q-5 -2 -41 -2q-134 0 -179 -10q-11 -4 -35 -10l-7 7v25q40 22 52 31q33 24 39 45q17 61 17 247q0 52 -1.5 137.5t-1.5 107.5q0 18 2.5 54.5t2.5 55.5q0 8 -23.5 26.5t-33.5 21.5q-22 7 -78 20l-5 24q6 3 14 3q12 0 38.5 -2t39.5 -2t74 -2q44 -1 72 1q65 -85 128 -213 q52 -114 103 -227q13 -26 23 -45q3 14 1 36q-2 31 -2 36q0 37 2 110t2 110q0 77 -20 113q-25 45 -95 61v28l152 1q15 0 45 8.5t46 8.5l14 -13q-8 -16 -32 -29q-28 -15 -38 -29q-18 -24 -20 -73q-1 -31 -9 -180q-6 -111 -6 -181z" />
<glyph unicode="O" horiz-adv-x="698" d="M512 -51q-12 -4 -32 -17t-31 -17q-47 -16 -88 -16q-95 0 -197 69t-134 157q-19 54 -19 121q0 240 125 368q9 10 31.5 25t33.5 17q72 48 147 48q50 0 108 -14q67 -17 99 -43q26 -22 68.5 -94t49.5 -106q10 -47 10 -147q0 -8 -10 -54q-25 -112 -52.5 -162t-108.5 -135z M332 662q-116 0 -171 -124q-40 -92 -40 -225q0 -113 57 -209q61 -100 161 -140l34 -14h46q3 0 27 15.5t28 17.5q21 21 61 63q16 19 35 99q17 75 17 107q0 49 -7 108q-12 96 -81 193q-79 109 -167 109z" />
<glyph unicode="P" horiz-adv-x="690" d="M335 178q-6 0 -25 8q-24 9 -27 10q-11 -8 -11 -13q0 -35 6 -105t6 -105q0 -28 20 -45.5t41 -33.5q-12 -8 -23 -8q-16 0 -46.5 9t-46.5 9q-98 0 -149 -54h-14q-9 0 -8 14q54 60 73 101q21 48 21 123v111q0 258 -19 367q-3 16 -20.5 36t-32.5 20q-26 0 -59 -8q-5 7 -5 15 q0 3 3 14q176 59 285 59q99 0 158 -21q84 -29 138 -87q63 -66 63 -147q0 -137 -99 -208q-87 -61 -229 -61zM295 655q-10 0 -40 -11q-5 -36 -5 -89q0 -54 5 -216q2 -68 16 -93q21 -35 84 -35q4 0 61 13q119 27 119 178q0 81 -45 144.5t-121 88.5q-59 20 -74 20z" />
<glyph unicode="Q" horiz-adv-x="715" d="M498 36v-1q-46 -33 -122 -33q-92 0 -194 58q-108 62 -141 143q-19 49 -19 108q0 276 192 364q55 25 71 31q37 12 78 12q61 0 106 -13q19 -5 99 -37q25 0 73 -77q43 -69 51 -103q10 -41 10 -129q0 -52 -37 -138t-75 -119v-4q36 -33 132 -95q107 -70 135 -70q11 0 33 -2 t33 -2q43 0 79 41h23v-12q1 -27 -49 -54q-46 -25 -76 -25q-70 0 -153.5 25t-146.5 62q-21 18 -63 40q-7 1 -21 9q-5 8 -18 21zM347 672q-110 0 -164 -100q-44 -81 -44 -202q0 -52 28 -121.5t64 -105.5q-2 8 -2 17q0 42 30 67t72 25q109 0 210 -111h7q50 95 50 175 q0 42 -7 95q-12 88 -84 171q-77 90 -160 90zM267 163q0 -45 33 -70q17 -12 74 -33q13 -5 14 -5h46q7 0 33 9q-16 24 -78 80q-68 62 -85 62q-14 0 -25.5 -14.5t-11.5 -28.5z" />
<glyph unicode="R" horiz-adv-x="861" d="M1426 -201q0 -4 -31 -6q-41 0 -98 -7q-27 5 -68 8q-61 3 -68 4q-226 23 -381 133q-57 41 -154 139q-113 115 -160 154q-93 79 -176 105q-4 -13 -4 -59q0 -143 25 -194q14 -29 163 -47l2 -29q-7 -1 -21 -1q-36 0 -108 4t-108 4q-54 0 -116 -9q-85 -12 -106 -33h-17 q14 26 86 80q61 45 69 98q6 38 4 96q-3 107 -3 97q0 15 4 43.5t4 43.5q0 82 -7 118q-14 68 -61 93q-6 5 -20 16q-8 5 -39 18q-25 9 -37 24q10 16 21 16q20 0 58.5 -9.5t58.5 -9.5l57 12q133 26 211 26q9 0 25 -3t22 -3q122 -10 178 -36q92 -42 92 -143q0 -147 -235 -225 q54 -25 110 -76q49 -47 97 -95q31 -30 105 -93q88 -74 103 -78q298 -161 492 -161q16 0 31 1v-16zM356 675q-41 0 -54 -16q-1 -33 -8 -106q-8 -68 -8 -105q0 -95 120 -95q72 0 121 32q57 37 57 104q0 92 -71 143q-63 43 -157 43z" />
<glyph unicode="S" horiz-adv-x="626" d="M616 202q0 -92 -64 -181q-60 -84 -147 -122q-37 -16 -54 -16h-52q-95 0 -184 46q-106 56 -106 143q0 80 88 136q78 49 162 49q60 0 126 -36q76 -41 76 -96q0 -44 -49 -75q-42 -28 -89 -28q-32 0 -70 18q-44 22 -44 50q0 14 14.5 31t28.5 17q18 0 43 -27q-34 -23 -34 -37 q0 -31 34 -31q26 0 48 33q20 30 20 57q0 41 -37 70t-78 29q-70 0 -111 -43.5t-41 -114.5q0 -68 70 -114q62 -41 133 -41q18 0 45 3q72 5 139.5 69.5t67.5 136.5q0 125 -109 171q-102 28 -204 57q-110 42 -110 159q0 81 54.5 139t133.5 58q19 0 54.5 -13t54.5 -13q13 0 32 24 q13 17 26 35q12 -79 41 -236q-21 5 -50 45q-34 47 -63 67q-52 34 -137 34q-87 0 -87 -78q0 -30 111 -64q145 -43 207 -88q111 -80 111 -223z" />
<glyph unicode="T" horiz-adv-x="540" d="M810 662h-14q3 0 -58.5 27.5t-106.5 27.5q-19 0 -84 -10q-70 -11 -73 -18q-16 -36 -18 -219q2 219 2 -241q0 -33 -2 -107q-2 -69 -2 -107l1 -28q3 -7 9 -30q5 -19 35 -31q25 -9 49 -17v-8q-5 -8 -23 -8q-12 0 -35.5 3.5t-35.5 3.5q-43 0 -113.5 -26t-76.5 -26 q-10 0 -14 5q6 11 54 47q36 28 36 65q0 72 1.5 217t1.5 217q0 40 3.5 118t3.5 118q0 43 -37 43q-8 0 -13 -5q-66 -2 -91 -5q-51 -7 -87 -26q-7 -5 -47.5 -39.5t-45.5 -34.5q-13 0 -13 13q0 8 42 58q26 31 50 82l8 22q7 16 12 16q14 0 22 -23q29 -35 111 -35q79 0 212 15 q159 18 196 41q20 12 28 36q10 28 20 38l16 -12q9 -15 18 -50.5t22 -50.5t37 -44v-12z" />
<glyph unicode="U" horiz-adv-x="692" d="M414 -65q4 0 27 15.5t28 17.5q21 20 61 63q20 22 36 127q13 89 13 142q0 352 -33 364q-12 3 -33 15q3 11 7 35q14 -1 66 -6q41 -4 66 -4q18 0 46 7q37 9 45 10l-1 -6l7 -7l3 -4l-1 -8q-39 -14 -65 -42q-16 -19 -42 -65q12 -58 12 -144q0 -356 -91 -451l-58 -60 q-13 -4 -32.5 -17t-30.5 -17q-49 -17 -88 -17q-92 0 -169 61q-75 57 -106 146q-23 61 -23 290q0 95 14 170q3 5 3 33q0 35 -18 57q-12 15 -48 39q1 2 5 35q46 -7 93.5 -13t91.5 -6q13 0 51.5 5t51.5 5q10 0 11 -25q-35 -21 -98 -71q-46 -45 -46 -230q0 -109 10 -207 q16 -159 52 -183q20 -12 55 -39q61 -15 128 -15z" />
<glyph unicode="V" horiz-adv-x="588" d="M755 722l-1 -7q-60 -21 -121 -138q-45 -88 -93 -233q-29 -97 -59 -193q-39 -122 -39 -146q0 -23 5 -62l-15 -20q-21 40 -114.5 255t-151.5 324q-89 166 -149 195q5 25 1 32q11 -1 107 -16q65 -10 108 -10q13 0 37 8.5t37 8.5q9 0 8 -21q-20 -15 -39 -29q-19 -18 -19 -45 q0 -17 41 -104q27 -56 54 -111q13 -40 46 -117q14 -40 47 -119q136 374 136 427q0 13 -10 45.5t-19.5 36t-31.5 14.5l7 32q14 -1 65 -6q40 -4 65 -4q18 0 44 6q36 10 43 11q-3 -13 11 -14z" />
<glyph unicode="W" horiz-adv-x="812" d="M913 702q-74 -26 -125 -152q-58 -137 -115 -275q-64 -160 -88 -284q-47 107 -131 323q-31 -52 -59 -160q-21 -86 -43 -171q-24 45 -99.5 240t-127.5 289q-79 146 -157 172l-12 37q165 -19 204 -19q13 0 44 4.5t44 4.5q9 0 8 -21q-31 0 -31 -59q0 -70 30 -149 q15 -41 65 -139q44 -87 61 -140q3 8 26 86.5t23 80.5q0 12 -16 58q-12 31 -23 62q-54 169 -107 181v35h346q0 -17 -11 -23.5t-23 -12.5q-5 -5 -41 -81.5t-36 -83.5q0 -44 36 -141q31 -86 59 -137q10 37 72 180q52 120 52 177q0 14 -10 47t-20 37t-31 16l7 32q13 -1 65 -6 q41 -5 66 -5q18 0 44 7q38 10 44 11q0 -8 5.5 -11t5.5 -5q0 -3 -1 -5zM523 662q0 11 -2 14q-8 10 -9 10q-19 -8 -23 -12q-1 0 -14 -21q0 -33 17 -94q31 38 31 103z" />
<glyph unicode="X" horiz-adv-x="868" d="M855 720q-43 -11 -80 -41q-18 -15 -64 -65q-24 -20 -72 -64q-48 -48 -148 -168q56 -89 159 -201q121 -131 191 -156l-1 -26q-13 1 -120 13q-73 8 -121 8q-14 0 -41.5 -7t-41.5 -7q-9 0 -9 18q65 39 65 61q0 5 -79 110q-68 90 -94 122q-11 -22 -104 -123q-87 -95 -87 -107 q0 -11 17 -31.5t29 -20.5q9 0 23 -10l-8 -26q-105 8 -146 8q-19 0 -49 -5q-40 -8 -49 -9q0 7 -6 9.5t-6 3.5q0 2 2 4q60 15 132 81q54 48 123 133q51 63 101 127q-55 90 -155 199q-118 131 -187 156l1 25q13 -1 120 -13q73 -8 120 -8q15 0 42.5 7t41.5 7q8 0 8 -17 q-65 -40 -65 -62q0 -1 76.5 -106.5t89.5 -122.5q12 23 109 125q90 95 90 107q0 8 -6 12q-9 7 -11 10t-5 15q-1 5 -12 8t-35 13l8 25q105 -8 145 -8q20 0 50 6q39 7 48 8q0 -6 6 -9t6 -4q0 -2 -1 -4z" />
<glyph unicode="Y" horiz-adv-x="630" d="M738 716l-10 -32q-70 -15 -169 -173q-71 -112 -165 -314q-59 -125 -117 -250q-129 -251 -260 -409q-91 -110 -187 -180q-125 -91 -234 -93h-7q-78 -2 -136.5 59t-58.5 140q0 64 55 112q51 43 117 51q-18 -31 -41 -53q-20 -18 -24 -31q-8 -22 -8 -79q0 -42 32 -96 q35 -60 73 -60h34q31 0 169 91q240 160 459 626q-62 189 -125 377q-98 269 -199 302q1 7 -3 8.5t-4 9.5l2 5q27 -1 81 -10t82 -9q31 0 78 7q69 10 77 11q-8 -8 -54 -50l-1 -6q-4 -53 57 -249q43 -131 85 -263q90 192 100 215q72 164 72 209q0 41 -33 79q-47 54 -54 67 q17 -3 75 -19q47 -13 75 -13q27 0 70 5q58 6 69 7h6q5 0 12 3.5t10 4.5z" />
<glyph unicode="Z" horiz-adv-x="480" d="M833 -92q0 -47 -138 -80q-108 -26 -180 -26q-59 0 -174.5 19t-174.5 19q-17 0 -69 -21.5t-61 -33.5l-36 17q72 51 308 448q41 69 82 187q46 130 46 196q0 9 -2 16q-69 -3 -138 -7q-87 -7 -140 -31q-68 -32 -92 -95q-8 -1 -13.5 4.5t-11.5 6.5q11 53 36 139q29 104 38 139 l24 -13q15 -46 75 -70q48 -19 106 -19q32 0 95.5 -4t94.5 -4q28 0 82.5 9t82.5 9l6 -1q-4 -5 0 -21q-54 -40 -122 -181q-48 -104 -97 -209q-34 -60 -100 -182q-37 -82 -113 -247q63 -9 127 -19q82 -12 125 -12q62 0 160 29q120 34 120 79q0 20 -6 30q5 12 16 12 q9 0 26.5 -35.5t17.5 -47.5z" />
<glyph unicode="[" horiz-adv-x="295" d="M268 802q-46 -38 -48 -46q-76 -7 -73 -51q7 -299 1 -434q0 -36 -1 -119q-8 -105 -8 -147l1 -31q2 -8 89 -4q3 -22 23 -35q17 -10 33 -19v-9q-3 -9 -15 -9q-8 0 -24 4t-24 4q-105 0 -152.5 -29t-51.5 -29q-6 0 -9 6q4 12 36 52q24 31 24 72q0 80 1 241t1 241 q0 45 2.5 131.5t2.5 130.5q0 48 -25 48q-24 3 -9 -5l-26 31q53 0 246 23z" />
<glyph unicode="\" horiz-adv-x="513" d="M323 53q-55 138 -82 206q-48 102 -73 152l-70 174q-50 117 -89 151q3 13 0 17l4 1q21 0 60.5 -7.5t59.5 -7.5q23 0 54 -38q-1 -6 -1 -14q0 -55 33 -163q30 -98 60 -156q171 -330 224 -372l-27 -15q-6 10 -44 28t-50 18q-43 0 -59 26z" />
<glyph unicode="]" horiz-adv-x="314" d="M36 819q207 -23 264 -23l-28 -31q17 8 -9 5q-27 0 -27 -48q0 -44 2.5 -130.5t2.5 -131.5q0 -80 1 -241t1 -241q0 -41 26 -72q35 -40 39 -52q-3 -6 -10 -6q-4 0 -55 29t-164 29q-9 0 -26 -4t-25 -4q-13 0 -17 9v9q17 9 35 19q22 13 25 35q94 -4 96 4l1 31q0 42 -8 147 q-1 83 -1 119q-7 135 1 434q3 44 -79 51q-2 8 -52 46z" />
<glyph unicode="^" horiz-adv-x="376" d="M10 661l70 34l70 44l38 83l57 -88l63 -65l65 -48h-86l-54 30l-40 58l-62 -62l-67 -14z" />
<glyph unicode="_" horiz-adv-x="789" d="M640 17h-98q-81 8 -84 1q-19 0 -81.5 1t-105.5 1q-10 0 -15 -5q-77 -2 -106 -5q-59 -7 -101 -26q-8 -5 -26 11.5t10 67.5q4 11 9 22q8 16 14 16q16 0 26 -23q33 -35 128 -35q92 0 246 2q185 -11 228 12q23 12 32 36q12 28 24 38l18 -12q11 -15 21.5 -50.5t-38.5 -43.5 t-101 -8z" />
<glyph unicode="`" d="M158 632l-7 -7q-24 6 -22 6q-21 0 -44 -19.5t-23 -39.5q0 -24 37 -50v-11h-11q-59 37 -65 90q-1 2 -1 10q0 27 8 44q2 5 24.5 33.5t24.5 28.5q5 0 15.5 -19.5t11.5 -26.5q13 -19 30 -25t22 -14z" />
<glyph unicode="a" horiz-adv-x="532" d="M529 3v-3h-5q-15 0 -43 3.5t-42 3.5h-61q-9 0 -24.5 -3.5t-22.5 -3.5q20 48 35 129q14 78 14 134q0 58 -27 58q-3 0 -10 -3t-10 -3q-121 0 -164 -115q-17 -47 -17 -55q0 -45 57 -79q51 -30 103 -30q9 0 16 1l-11 -13v1q-45 -26 -98 -26q-73 0 -122 23q-65 30 -65 95 q0 67 63 113q41 30 132 62q97 34 118 47q8 5 8 17q0 13 -11 26t-24 13q-57 0 -160 -39t-156 -39q25 23 70 74q12 21 40 60q8 -10 31 -29q23 -12 85 -12q18 0 53.5 4t53.5 4q41 0 82.5 -30t46.5 -69q3 -25 6 -140q2 -86 18 -139q11 -8 35 -18q0 -4 3 -10t3 -9z" />
<glyph unicode="b" horiz-adv-x="521" d="M516 233q0 -86 -42 -140q-37 -47 -121 -84q-9 0 -27.5 -4.5t-29.5 -4.5q-72 0 -122 67q-10 -7 -21 -22q-16 -21 -19 -25q-17 -18 -56 -37.5t-62 -19.5q82 66 82 211v357q0 73 -9 86q-13 18 -79 17l-5 10q56 19 111 38q65 22 103 56h13q-9 -50 -19 -101q-10 -59 -10 -102 q0 -59 7 -167h-1l7 -2q3 0 12 8t9 9q45 31 102 31q77 0 134 -58q13 -13 28 -57.5t15 -65.5zM415 168q0 59 -20 108q-25 60 -71.5 76.5t-51.5 16.5q-16 0 -35.5 -13.5t-25.5 -28.5q-4 -10 -4 -64q0 -73 -6 -112q-1 -7 -7 -27.5t-6 -32.5q0 -21 47 -41q41 -16 67 -16 q47 0 82 44q31 40 31 90z" />
<glyph unicode="c" horiz-adv-x="419" d="M411 80l-16 -27q-78 -53 -148 -53q-99 0 -169 63.5t-70 161.5q0 32 12 63q16 47 88 89q69 39 121 39q15 0 42.5 -7.5t41.5 -7.5t41 18h23q-7 -17 -7 -47q0 -41 7 -95q-7 -5 -21 -5q-9 49 -51.5 78t-94.5 29q-50 0 -80 -62q-24 -50 -24 -107q0 -76 50 -126.5t126 -50.5 q32 0 67 16q31 16 62 31z" />
<glyph unicode="d" horiz-adv-x="513" d="M514 -37h-16q-10 0 -51 24t-50 33q-12 18 -41 47q-50 -67 -121 -67q-11 0 -30 4.5t-27 4.5q-84 37 -122 84q-41 54 -41 140q0 21 15 65.5t28 57.5q57 58 134 58q57 0 101 -31q1 -1 10 -9t12 -8q6 0 6 2q7 110 7 167q0 76 -9 90q-14 20 -82 20l-4 9q55 19 111 38 q65 23 103 56h13q-10 -50 -19 -101q-11 -59 -10 -101l1 -372q1 -146 82 -211zM343 91q0 12 -6 32.5t-8 27.5q-4 31 -4 143q0 29 -19 52t-47 23q-6 0 -51 -16q-48 -17 -72 -77q-21 -49 -21 -108q0 -50 32 -90q34 -44 82 -44q26 0 67 16q47 20 47 41z" />
<glyph unicode="e" horiz-adv-x="409" d="M396 62q-21 -30 -81 -48q-49 -14 -96 -14q-74 0 -140 60.5t-66 133.5q0 225 199 225q70 0 123 -54.5t54 -125.5q-23 -12 -81 -12q-28 0 -84.5 4t-84.5 4q-14 0 -23 -7q0 -75 45 -130q48 -60 122 -60q21 0 58 12t55 12zM297 277q0 35 -29 75q-32 44 -65 44q-27 0 -58 -51 q-29 -46 -29 -76q0 -11 5 -15q16 1 34 1q23 0 69 -2.5t68 -2.5q5 12 5 27z" />
<glyph unicode="f" horiz-adv-x="407" d="M659 598q0 -12 -15 -49l-38 9q-22 0 -50 -13q-34 -15 -47 -18q0 11 1.5 32t1.5 32q0 37 -30 57q-26 17 -65 17q-99 0 -155 -71q-52 -64 -52 -165q0 -3 2 -7t2 -7h60q2 0 104 49q1 -6 1 -13q0 -8 -2.5 -25t-2.5 -26q0 -33 13.5 -86.5t13.5 -56.5q0 -6 -11 -6q-10 0 -30 33 q-25 42 -27 44q-7 7 -44 27.5t-46 20.5q-20 0 -38 -12q6 -74 11 -147q7 -90 26 -145q16 -46 96 -57q0 -21 -15 -21q-28 0 -84 7.5t-84 7.5q-17 0 -51.5 -7.5t-52.5 -7.5q-12 0 -23 6q7 10 34 27q24 15 31 32q9 22 17 112q7 77 7 118q0 78 -27 109q-30 35 -106 32q7 10 45 21 q45 14 53 19q51 29 124 101q78 76 118 101q72 46 157 46q67 0 116 -26q62 -33 62 -94z" />
<glyph unicode="g" horiz-adv-x="500" d="M544 371l-5 -9q-7 0 -23 1h-23q-13 0 -28 -10l-16 -21l-2 -203q1 -33 -1 -97q-10 -95 -85 -192q-86 -110 -230 -196q-157 -93 -283 -93q-68 0 -130 12q-17 7 -54 18q-32 9 -68 33q-30 23 -61 46q-48 33 -73 39v18l230 1q13 0 38 16l11 -10l-30 -22q-19 -16 -19 -28 q0 -23 70 -45q60 -20 91 -20q92 0 213 62t203 153q92 100 92 194q-20 -15 -87 -15q-6 0 -17 -1.5t-16 -1.5q-11 0 -30 4.5t-28 5.5q-84 36 -121 83q-42 54 -42 140q0 21 15 65.5t28 57.5q57 58 134 58q43 0 85 -24q22 -13 45 -26q-3 34 -10 101h13q37 -33 103 -56 q55 -19 111 -38zM336 126q0 29 -3 86t-3 84.5t-19.5 50.5t-46.5 23q-6 0 -51 -17q-48 -17 -72 -77q-21 -49 -21 -108q0 -49 32 -90q34 -44 82 -44q31 0 60 8q41 12 41 34z" />
<glyph unicode="h" horiz-adv-x="524" d="M520 281q0 -78 -34 -133q-40 -56 -81 -111l85 -17v-20q-118 -2 -119 -2q-8 0 -22 4.5t-21 4.5t-22 -3.5t-23 -3.5q39 27 77 54q73 60 73 149q0 68 -39 110.5t-107 42.5q-50 0 -67 -14t-17 -60q0 -26 -1 -78t-1 -78q0 -52 2 -62q4 -33 23 -54v-14h-20q-50 34 -88 34 q-11 0 -81 -30l-9 5q20 15 55 51q12 18 13 126q-1 -93 -1 137q0 11 2 32t2 32q0 132 -13 182q-7 28 -42 37.5t-39 16.5q55 21 125 56q3 6 12.5 17t38 28t39.5 30h13l2 -9q0 -22 -13 -65q-15 -47 -17 -65q-9 -72 -9 -176q0 -57 14 -71q36 19 73 37q48 24 75 24q63 0 111 -40 q51 -43 51 -104z" />
<glyph unicode="i" horiz-adv-x="251" d="M187 551q0 -21 -21.5 -44.5t-42.5 -23.5q-23 0 -46 22t-23 44q0 15 29.5 39t44.5 24q20 0 39.5 -20.5t19.5 -40.5zM241 2l-3 -2q-27 0 -81 7.5t-82 7.5q-38 0 -52 -15l-8 26l57 26q13 56 13 180q0 49 -5 69q-8 35 -37 57v14q104 29 141 107h14v-25q0 -24 -9 -65 q-10 -46 -12 -64q-5 -51 -5 -116q0 -51 11 -106q16 -80 46 -80l-1 -3z" />
<glyph unicode="j" horiz-adv-x="224" d="M152 548q0 -22 -21.5 -45.5t-43.5 -23.5t-45 22t-23 45q0 15 29.5 39t44.5 24q19 0 39 -21t20 -40zM224 51q2 -7 12.5 -12t10.5 -12l-45 -36q-60 -57 -140 -187q-85 -139 -134 -192q-27 -29 -91 -55t-105 -26q-28 0 -77.5 23t-63.5 45q-16 26 -16 71t36 87.5t81 43.5 q47 -17 56 -44l-4 -26q-10 7 -22 7q-28 0 -46 -30q-16 -25 -16 -54q0 -41 38 -63q31 -18 76 -18q88 0 197 141q75 98 135 222q-6 14 -21 31q-20 22 -25 30q-10 16 -11 124q0 -51 0 136q0 66 -41 98v14q104 28 141 106h14v-25q0 -27 -10 -76q-12 -53 -13 -76q-3 -40 -3 -92 t11 -107q16 -80 46 -80q5 0 16 14z" />
<glyph unicode="k" horiz-adv-x="659" d="M663 -13q-28 0 -82.5 12t-83.5 12q-49 0 -74 -24q-10 2 -24 34q17 0 32.5 20.5t15.5 37.5q0 48 -134 201q-20 -13 -40 -25q-22 -17 -22 -40q0 -38 20 -93q23 -60 50 -77q5 -4 32 -17l3 -28h-80q-20 0 -63 2t-66 2l-39 -1q-10 -4 -31 -4.5t-29 -3.5l-11 12q1 8 26 21 q33 17 40 23q42 36 42 124q0 12 -1 35.5t-1 33.5q0 44 -3 82q-2 74 -4 149q-6 106 -38 132q-10 2 -52 2q-37 0 -50 10l11 16q130 23 196 68q28 21 88 55l2 -9q0 -11 -9 -29l-14 -28q-28 -78 -28 -313q0 -67 12 -109q41 25 77 64q44 49 44 86q0 18 -10 32q31 2 93 13 q3 1 56 23q34 14 60 14l5 -12q-44 -47 -187 -150q24 -29 78 -120t87 -133q54 -66 106 -82v-18z" />
<glyph unicode="l" horiz-adv-x="246" d="M237 2l-4 -2h-97q-65 1 -96 1l3 6l-7 8q4 6 28 26q20 16 20 31v438q0 12 -1.5 36.5t-1.5 35.5l-7 17q-2 5 -9 7t-6 6l-7 1q-8 0 -24 -2.5t-25 -2.5q-4 10 -4 21q38 10 88 48t69 71h20l1 -8q0 -6 -2 -17t-2 -17l1 -464q0 -14 -2 -41t-2 -41q0 -77 26 -113q5 -7 20 -16.5 t20 -17.5z" />
<glyph unicode="m" horiz-adv-x="693" d="M438 0q19 28 48 55q44 41 45 43q50 52 50 134q0 121 -119 121q-2 0 -15 -5l-24 -17q6 -21 6 -39q0 -44 -21 -124t-42 -120q-11 -22 -44 -37q-9 -4 -24 -17q43 85 43 237q0 121 -119 121q-2 0 -15 -5l-7 -11q-28 -2 -31 -52v-21q0 -36 1 -100q2 -72 3 -101q8 -4 59 -38 l-2 -24q-13 1 -32.5 9t-30.5 8q-71 0 -92 -17q-34 0 -50 5q5 8 29 20q21 9 28 33q3 9 3 91q0 19 2.5 57t2.5 57q0 -12 -4 104q-6 7 -26 8.5t-27 12.5v12q6 8 15 9q6 1 18 -1t16 -2q12 0 35.5 3.5t35.5 3.5q8 0 24 -12l2 -7q0 -5 -2.5 -14t-2.5 -14q0 -3 2 -9q48 36 61 42 q28 14 75 14q21 0 53 -21q28 -19 45 -39q46 37 63 45q31 16 79 16q41 0 79 -40.5t38 -80.5q0 -52 -60 -140q-57 -82 -107 -118l15 -4q30 2 76 29q40 24 69 51q6 -36 17 -108q-41 0 -120.5 -1.5t-120.5 -1.5z" />
<glyph unicode="n" horiz-adv-x="562" d="M310 0q10 15 43 37q86 59 86 190q0 60 -40 91q-36 29 -98 29q-60 0 -85 -25.5t-25 -84.5v-49q0 -59 12 -98q13 -43 49 -89q-7 -8 -18 -8q-18 0 -52 11.5t-52 11.5q-15 0 -41 -5q-32 -8 -47 -10q5 8 29 26t24 81q0 7 5 19.5t5 18.5v109q0 15 -6.5 47.5t-13.5 39.5 q-23 -2 -76 2q4 10 36 18l40 8q22 9 106 53q11 -15 10 -75l5 -4q115 71 185 71q132 0 132 -127q0 -61 -48 -150q-51 -92 -104 -117l1 -1q32 3 83.5 28.5t77.5 49.5q6 -36 17 -108q-39 0 -119 5t-121 5z" />
<glyph unicode="o" horiz-adv-x="471" d="M459 219q0 -146 -128 -199q-49 -20 -61 -20h-106q-54 0 -103 68q-47 64 -47 120q0 74 36.5 130t105.5 81q55 20 86 20q80 0 147 -59q70 -62 70 -141zM359 203q0 64 -34 118q-38 62 -99 62q-53 0 -84 -70q-25 -55 -25 -116q0 -46 12 -71q18 -37 46 -65q35 -34 69 -34 q6 0 18.5 1.5t19.5 1.5t33 31q44 54 44 142z" />
<glyph unicode="p" horiz-adv-x="549" d="M425 168q0 -50 -32 -90q-34 -44 -82 -44q-31 0 -60 8q-40 12 -41 34q-1 19 -1 52q0 27 3 82.5t3 84t19 51.5t47 23q6 0 52.5 -16.5t71.5 -76.5q20 -49 20 -108zM183 -388q6 20 14 60l13 359q25 -20 43 -25.5t51 -5.5q11 0 30 4.5t28 4.5q84 37 122 84q41 54 41 140 q0 21 -15 65.5t-28 57.5q-57 58 -134 58q-38 0 -82 -24l-47 -26q2 34 9 101h-13q-37 -34 -103 -56q-55 -19 -111 -38l5 -10q5 0 16.5 1t17.5 1q26 0 40 -11l16 -20q3 -196 3 -208q0 -96 -6 -429q-9 -25 -18.5 -75.5t-18.5 -73.5q-15 -38 -45 -62q23 0 62 19.5t56 37.5 q12 17 41 47z" />
<glyph unicode="q" horiz-adv-x="549" d="M234 34q-48 0 -82 44q-32 41 -32 90q0 59 21 108q24 60 72 77q45 17 51 17q16 0 35.5 -14t25.5 -29q3 -9 3 -64q0 -22 4 -68t4 -69l-1 -50q0 -22 -41 -34q-29 -8 -60 -8zM376 -412q10 -7 21 -22q15 -21 19 -25q17 -18 56 -37.5t62 -19.5q-30 24 -45 63q-9 23 -18.5 73.5 t-18.5 74.5q-6 326 -6 429q0 13 3 208l16 21q15 10 36 10q-49 -1 38 -1l5 9q-56 19 -111 38q-66 23 -103 56h-13q1 -34 10 -101q-23 13 -45 26q-43 24 -85 24q-77 0 -134 -58q-13 -13 -28 -57.5t-15 -65.5q0 -86 42 -140q37 -47 121 -83q9 -1 28 -5.5t30 -4.5q53 0 94 31 l14 -359q6 -19 13 -60z" />
<glyph unicode="r" horiz-adv-x="401" d="M178 388q33 37 100 37q45 0 79.5 -29t34.5 -73q0 -34 -23.5 -59.5t-57.5 -25.5q-25 0 -35 6q-3 2 -24 24v17l9 -1q12 0 21.5 9t9.5 21q0 23 -18.5 38.5t-42.5 15.5q-74 0 -73 -131q1 -10 1.5 -28.5t0.5 -26.5q0 -53 -3 -99l11 -8q-1 -17 21 -34q2 -1 38 -24v-17 q-15 -2 -27 -2q-18 0 -52.5 4.5t-51.5 4.5q-35 0 -78 -8v19q31 18 40 40q7 15 7 56q0 34 -2.5 100.5t-2.5 100.5q0 76 -47 75v36q33 -16 55 -16q10 0 31 2t32 2q20 0 60 -2q-6 -6 -13 -24z" />
<glyph unicode="s" horiz-adv-x="449" d="M243 0q-11 0 -234 11v15q23 20 40 60q14 33 27 67q12 25 28 43q9 -5 9 -18q0 -6 -2 -18.5t-2 -18.5q0 -113 172 -113q25 0 86 48q5 11 18 34q0 51 -87 78l-128 38q-68 28 -68 84q0 53 60 85q50 27 107 27q12 0 34.5 -3.5t33.5 -3.5q10 0 23 2q8 2 32 6q-13 -15 -13 -28 q0 -12 4 -36.5t4 -38.5h-22q-23 32 -68 50q-41 17 -84 17q-48 0 -48 -29q0 -19 41 -30q48 -11 95 -22q63 -18 96 -49q43 -42 43 -113q0 -68 -67 -109q-57 -35 -130 -35z" />
<glyph unicode="t" horiz-adv-x="350" d="M451 503h-14q-71 44 -108 44q-13 0 -36 -4.5t-32 -5.5l-7 -6q-5 -147 -5 -136q0 -68 5 -175q7 -138 17 -162q12 -27 68 -43l2 -18h-3q-25 0 -73 5.5t-71 5.5q-22 0 -68.5 -5.5t-70.5 -5.5h-10l9 17q21 5 45 28t28 44q14 79 14 250v170q2 6 -12 6q-20 0 -55 -6 q-38 -6 -55 -7l-5 23q120 13 125.5 13t5.5 8q0 30 -15 56q-19 31 -47 31q-5 0 -29 -4v16q162 37 239 121q11 -6 11 -14q-50 -131 -50 -159q0 -27 16 -27q36 0 78 34q32 29 64 59q0 -7 -3.5 -20t-3.5 -19q0 -27 46 -114z" />
<glyph unicode="u" horiz-adv-x="586" d="M571 409q-22 -10 -43 -20q-24 -13 -29 -35q-5 -27 -6 -62q-1 -25 -1 -63q1 -56 1 -63q0 -108 18 -137q8 -12 24 -14q21 -2 27 -5l5 -10h-185v10q30 19 30 54q0 9 -2 15q-1 0 -34 -28q-43 -38 -110 -51q-43 -8 -122 -8q-47 0 -88 34t-41 80q0 63 50 119q38 41 113 86 q59 33 117 66l1 4l-5 1q-40 0 -131 -27q-79 -23 -130 -45q36 30 56 73q24 52 40 71q21 -10 29 -22.5t18 -16.5q19 -7 75 -12v-1q18 1 67 8q42 6 67 6l2 -14q-27 -22 -111 -72q-68 -40 -96 -74q-41 -50 -41 -125q0 -42 45 -74q41 -31 84 -31q41 0 89.5 38t52.5 77t3 98 q-3 97 -3 96v82q7 3 13 3q12 0 35.5 -5.5t36.5 -5.5q7 0 77 16z" />
<glyph unicode="v" horiz-adv-x="572" d="M608 413q-73 -42 -103.5 -68t-54.5 -67q-30 -53 -59 -107q-31 -58 -97 -171h-18q-14 32 -52.5 88.5t-52.5 86.5q-11 24 -34 56q-36 50 -39 54q-12 26 -42 75q-12 17 -42 29l-50 18l3 18l7 2l7 -2v-1q0 -2 8 -2q31 0 94 -7.5t94 -7.5q9 0 31.5 7.5t21.5 7.5q5 0 5 -10 q0 -1 -9.5 -17t-9.5 -30q0 -28 8 -59q2 -5 54.5 -86.5t61.5 -93.5q10 9 66 115t56 116q0 6 -22.5 24.5t-23.5 36.5q89 -12 96 -12q18 0 52.5 9.5t38.5 9.5q7 0 2 -10z" />
<glyph unicode="w" horiz-adv-x="798" d="M840 418q-69 -39 -126 -106q-44 -52 -92 -136q-40 -72 -81 -144q-6 -10 -16 -32l-12 -2l-6 2q-16 37 -49 89q-50 76 -56 86q-77 -72 -119 -175h-18q-14 32 -51.5 87.5t-51.5 84.5q-37 81 -113 182q-12 18 -42 29q-24 9 -49 18l3 19q3 2 7 2q6 0 19.5 -5.5t19.5 -5.5 q24 0 72 -4.5t72 -4.5q12 0 35.5 7t33.5 7q6 0 6 -10q0 -1 -10 -16.5t-10 -30.5q0 -27 9 -58q1 -5 53 -85t61 -92q8 6 34 38t26 38q0 9 -43 91t-52 91q-3 3 -25 16q-17 10 -20 17q34 0 103 2.5t103 2.5q11 0 32 -2t32 -2q14 0 39.5 5t38.5 5l-4 -12q-29 -22 -74 -68 q-56 -56 -56 -74q0 -6 107 -148q31 47 72 121q54 96 54 118q0 6 -22 24.5t-24 35.5q88 -11 95 -11q17 0 48 7.5t46 8.5l-2 -10h3zM474 357q0 30 -16 47l-45 -12l3 -29q10 -22 37 -60q21 22 21 54z" />
<glyph unicode="x" horiz-adv-x="569" d="M574 426q-120 -64 -232 -202q35 -72 113 -168q13 -15 39 -24q23 -8 45 -16l-4 -17l-6 -4q-31 0 -92.5 9t-92.5 9q-8 0 -23.5 -6.5t-22.5 -6.5q-6 0 -8 11q1 5 11 19q6 10 6 21q0 38 -16 66q-19 27 -39 55q-3 -5 -57 -62q-44 -47 -44 -59q0 -2 20 -19t22 -35 q-83 10 -89 10q-15 0 -43 -7.5t-43 -8.5l-2 3q0 2 1 5h-16q97 51 137 98q34 32 98 99q-38 77 -116 173q-12 15 -39 24q-23 8 -45 16l4 17l7 4q30 0 91.5 -9t92.5 -9q8 0 23.5 6.5t23.5 6.5q5 0 8 -11q-2 -5 -11 -19q-7 -10 -7 -21q0 -38 18.5 -67.5t39.5 -58.5q1 3 57 62 q42 46 42 64q0 2 -20.5 19t-21.5 35q82 -10 89 -10q44 0 81 15l7 -3l-2 -6q5 0 16 2z" />
<glyph unicode="y" horiz-adv-x="555" d="M629 438q0 -32 -12 -43q-19 -12 -38 -25q-99 -80 -228 -324q-34 -65 -132 -198q-94 -129 -171 -196q-117 -101 -230 -101q-114 0 -191 33q-41 18 -103 67q-50 41 -88 48v19h228q13 0 37 16l11 -10q-14 -11 -29 -22q-19 -16 -19 -28q0 -20 77 -42q67 -20 97 -20 q14 0 63 17q71 24 110 47q49 30 89 80q24 25 68 77q67 86 124 182q-42 45 -105 150q-40 79 -93 172q-62 61 -85 67v14q5 4 11 4q7 0 20.5 -4t20.5 -4l108 2q19 0 57.5 7t44.5 7q11 0 24 -18q-18 -13 -43 -15q-29 -41 -29 -74q0 -29 51 -115t67 -86q31 0 79 93q45 87 45 122 t-22 51q-12 8 -54 21v15l7 4q6 0 16.5 -4t15.5 -4q14 0 40.5 2t40.5 2q12 0 37 -2t37 -2q6 0 22 8.5t24 9.5z" />
<glyph unicode="z" horiz-adv-x="575" d="M386 15q-8 8 -62 8q-120 0 -317 -28l16 38l269 223q39 34 120 100q-14 1 -57 6q-35 4 -57 4q-40 0 -117.5 -27t-129.5 -27q15 17 45 44q26 23 39 39q13 21 46 62q9 -5 20 -16l4 -4q6 -7 13 -10q21 -10 82 -10q127 0 245 16l-16 -38l-254 -235q-36 -37 -112 -106 q108 6 192 32q31 11 91 31q50 16 104 16q-15 -17 -44 -44q-27 -23 -39 -39q-13 -21 -46 -62q-8 4 -35 27z" />
<glyph unicode="{" horiz-adv-x="333" d="M318 -214q0 -8 -7 -20q-9 -15 -9 -18q-2 0 -8 -3q-5 -3 -8 -3q-64 0 -140 130q-9 30 -25 130q-7 36 -17 121q-10 81 -17 120q-4 15 -68 48q-3 16 74 52q52 -52 65 -146q15 -117 20 -148q12 -79 28 -127q46 -143 92 -143q5 0 20 7zM298 788q-46 0 -92 -134 q-16 -46 -28 -121q-5 -29 -20 -140q-13 -87 -65 -136q-77 33 -74 49q64 30 68 44q7 38 17 114q10 80 17 114q16 94 25 123q76 122 140 122q3 0 -34 -3q6 -2 8 -2q0 -3 51 -17q7 -12 7 -19q-15 6 -20 6z" />
<glyph unicode="|" horiz-adv-x="221" d="M207 802q-46 -12 -48 -20q-11 -40 -12 -243q1 243 1 -268q0 -36 -1 -119q-2 -76 -2 -118l1 -32q2 -7 6 -32q3 -22 23 -35q17 -10 33 -19v-9q-3 -9 -15 -9q-8 0 -24 4t-24 4q-28 0 -75.5 -29t-51.5 -29q-6 0 -9 6q4 12 36 52q24 31 24 72q0 80 1 241t1 241q0 45 2.5 131.5 t2.5 130.5q0 48 -25 48q-24 3 -9 -5l-26 31q53 0 185 23z" />
<glyph unicode="}" horiz-adv-x="378" d="M30 -221q54 0 109 143q18 48 33 127q6 31 24 148q14 94 76 146q91 -36 88 -52q-76 -33 -80 -48q-9 -39 -21 -120q-12 -85 -20 -121q-19 -100 -29 -130q-90 -130 -166 -130q-4 0 -9 3q-7 3 -9 3q-1 3 -11 18q-8 12 -9 20q18 -7 24 -7zM6 782q1 7 9 19q59 14 60 17 q2 0 10 2q-45 3 -41 3q76 0 166 -122q10 -29 29 -123q8 -34 20 -114q12 -76 21 -114q4 -14 80 -44q3 -16 -88 -49q-62 49 -76 136q-18 111 -24 140q-15 75 -33 121q-55 134 -109 134q-6 0 -24 -6z" />
<glyph unicode="~" horiz-adv-x="478" d="M472 692q0 -51 -54.5 -92.5t-106.5 -41.5q-40 0 -91 41q-24 18 -80 75q-40 40 -52 40q-17 0 -72 -51q7 38 54.5 79t85.5 41q25 0 70 -34q73 -56 84 -63q54 -34 106 -34q25 0 25 50q0 8 -3 36q12 0 23 -16.5t11 -29.5z" />
<glyph unicode="&#xa5;" horiz-adv-x="656" d="M775 423q-107 -31 -166 -83q-44 -38 -118 -145q-16 -23 -69 -70q-48 -43 -65 -74q-29 -53 -94 -118q-54 -54 -108 -107q-36 -42 -110 -126q-138 -152 -316 -288q-73 -56 -199.5 -122.5t-213.5 -94.5q-14 -13 -80.5 -34.5t-91.5 -22.5q-21 -7 -110.5 -20t-113.5 -13 q-139 0 -208 9q-12 2 -37 13t-36 11q-4 0 -4 -2t-4 -2q-56 0 -110 46q-57 47 -57 102q0 43 36 71q32 27 77 27q62 0 62 -50q0 -8 -25 -37t-25 -51q0 -37 61 -68q54 -28 95 -28q44 0 131.5 2.5t131.5 2.5q-4 0 33 10q68 19 137 38q82 23 133 48.5t121 70.5q58 38 117 76 q41 27 64 44q42 31 52 52q77 46 243 213q117 121 235 243q29 36 95 98q-11 12 -74 105q-51 78 -110 152q-24 29 -67 62l-74 54q25 0 176 5q108 3 177 2h42l5 -19l-38 -12q-22 -7 -32 -21q-7 -10 -16 -32q-10 -25 -10 -34q0 -79 120 -158q11 -6 18 -6q4 0 73 84t75 97t6 25 q0 34 -25 46q-15 6 -54 6q-20 0 -23 4.5t-1 12t-1 13.5q30 -2 186 -2q91 0 179 6z" />
<glyph unicode="&#xb4;" horiz-adv-x="737" d="M1026 482q-3 -31 -36.5 -62.5t-66.5 -43.5q-69 -25 -193 -25q-79 0 -124 9q-17 10 -53 21q-57 6 -65 10q-20 9 -39 19q-34 15 -68.5 30.5t-75.5 15.5q-16 0 -26 -4q-11 4 -22 4q-39 0 -81 -41l-1 3q0 11 25 33t39 27q63 22 121 22q42 0 62 -6q153 -43 214 -55 q112 -24 218 -24h-11l44 -2q14 8 45.5 10t41.5 9q17 12 14 47q19 6 24 6q8 0 14 -3zM717 121q0 -42 -77 -82q-69 -35 -116 -35h-60q-159 0 -290 95q-143 104 -143 258q0 131 81 234q86 110 214 110h132q8 0 18 5l14 19q14 -1 33 -76q10 -44 21 -88q-16 9 -47 51 q-29 39 -54 48q-14 4 -55 12.5t-52 8.5q-7 0 -38.5 -11t-33.5 -15q-54 -41 -92.5 -114t-38.5 -140q0 -129 44 -206q48 -83 160 -136q11 -6 48 -16.5t47 -10.5q42 0 85 5q16 2 61.5 21t52.5 30q14 19 17 50q12 11 28 11q12 0 26.5 -8.5t14.5 -19.5z" />
<glyph unicode="&#xb5;" horiz-adv-x="1000" d="M752 45q-22 -26 -57 -43.5t-68 -17.5q-12 0 -45 18t-75 18q-35 0 -46 8l-12 3q13 13 40 39l70 68q24 31 24 94q0 124 -121 124q3 0 -16 -4l-25 -19q6 -22 6 -41q0 -53 -23 -125q-25 -76 -57 -114q-14 -17 -53 -33q34 36 44 100q5 31 5 111q0 124 -121 124q3 0 -16 -4 q-4 -4 -8 -12q-31 -2 -31 -75q0 -31 1 -85q2 -61 2 -86l1 -33q7 -4 59 -38l-2 -22q-10 0 -30.5 9t-30.5 9q-73 0 -92 -18q-35 0 -47 4q2 5 28 17q22 12 28 35q3 11 3 93q0 19 2.5 57t2.5 58q0 -16 -4 106q-6 7 -26.5 8.5t-26.5 11.5v12q5 6 14 7q5 1 17 -1t16 -2 q12 0 35.5 3.5t35.5 3.5q24 0 24 -17q0 -5 -2.5 -14.5t-2.5 -14.5t3 -12q52 39 61 44q27 14 76 14q21 0 53 -22q29 -20 45 -39q49 39 63 46q30 16 79 16q40 0 77.5 -40t37.5 -81q0 -21 -21 -71q-17 -38 -49 -78l-58 -70q14 -4 42 -10q10 -3 32 -19q19 -14 43 -14 q14 0 44.5 7.5t45.5 7.5q4 0 6 -1z" />
<glyph unicode="&#xc5;" horiz-adv-x="752" d="M736 718q-4 -8 -30 -20t-33 -29q-12 -35 -11 -126l5 -477q0 -27 22 -41q21 -10 42 -21q-15 -24 -19 -24q-11 0 -37 10t-38 10h-221q-6 0 -12 7.5t-11 7.5q-2 0 -5 -1q70 31 102 91q23 45 29 124l10 138q-24 19 -155 19q-124 0 -185 -36q-81 -46 -81 -161q0 -51 20 -115 q25 -82 63 -82l9 1q4 9 19 20q6 -38 6 -37q0 -62 -15.5 -81.5t-71.5 -31.5q-126 51 -126 192q0 159 140 341q123 160 281 254q-15 14 -42 27.5t-46 13.5l1 6q0 4 -13 17h12q46 2 129 -5q90 -8 128 -8q45 0 83 16q6 8 28 18zM539 406v59q0 48 -8 102q-11 74 -31 93 q-53 -13 -174 -123.5t-143 -164.5q98 42 170 42q146 0 186 -8z" />
<glyph unicode="&#xd1;" horiz-adv-x="1000" />
<glyph unicode="&#xd2;" horiz-adv-x="689" d="M670 338q-22 -56 -87 -238q-54 -149 -95 -235q20 52 20 73q0 94 -186 94q-135 0 -265 -27q55 55 72.5 95.5t17.5 115.5q0 44 2.5 132t2.5 132q0 204 -92 204v20q40 -3 94 -3q125 0 192 20l9 -19q-83 -72 -83 -214q0 -19 1.5 -59t1.5 -61v-242q0 -8 -15 -44 q56 -17 200 -17q54 0 124 111z" />
<glyph unicode="&#xdf;" horiz-adv-x="399" d="M388 28q0 -52 -20 -113q-26 -84 -119 -108q-45 -11 -170 -11q-19 0 -53.5 9t-51.5 9q-20 0 -85 -8l-8 9q101 87 114 162h17q0 -8 -3 -24.5t-3 -24.5q0 -52 70 -80q52 -20 113 -20q54 0 100 28q52 33 52 82q0 64 -36 112q-27 38 -85 75q-51 30 -102 61q-26 16 -62 64 q-40 52 -40 78q0 20 49 52.5t71 32.5h133q5 -11 16 -33q4 -7 20 -20.5t18 -26.5q-5 -11 -16 -13q-155 65 -184 65q-21 0 -42 -11q-25 -13 -25 -32q0 -23 48 -40q33 -9 67 -19q81 -31 125 -71q27 -25 59.5 -88t32.5 -96z" />
<glyph unicode="&#x2dc;" horiz-adv-x="652" d="M640 33q-21 -26 -56.5 -43.5t-68.5 -17.5q-12 0 -45 18t-75 18q-9 0 -32 1l-14 7l-12 3q67 57 84 88q20 38 20 120q0 62 -41 94q-36 29 -99 29q-61 0 -86.5 -26.5t-25.5 -86.5q0 -94 6 -125q11 -56 54 -113q-4 -5 -15 -5q-17 0 -52 11.5t-52 11.5q-15 0 -42 -6 q-33 -8 -42 -9q4 7 27.5 22.5t23.5 82.5q0 6 5 19t5 19v111q0 14 -7 47q-7 38 -14 42q-25 -1 -74 2q0 5 33 13l40 10q29 12 105 53q10 -12 9 -74l6 -7q117 73 186 73q130 0 130 -126q0 -114 -94 -227q14 -3 42 -10q10 -3 32 -20q19 -13 43 -13q15 0 46 7.5t46 7.5q2 0 4 -1z " />
<glyph unicode="&#x3a9;" horiz-adv-x="691" d="M670 331q-22 -54 -88 -233q-53 -146 -94 -230q3 9 3 27q0 12 -2 36t-2 35q-22 17 -44 35t-55 18q-18 0 -53 1t-53 1q-106 0 -260 -23l9 22l267 235q45 43 142 123q-28 0 -85.5 4.5t-86.5 4.5q-36 0 -105 -28t-108 -28q25 23 70 73q12 21 41 60q8 -11 31 -29 q23 -12 86 -12q141 0 247 16l-9 -23l-252 -249q-33 -33 -65 -67q-39 -40 -70 -63q103 3 271 15q9 1 30 6t25 5q54 0 123 109q44 80 87 159z" />
<glyph unicode="&#x401;" horiz-adv-x="679" d="M659 359q0 -51 -54.5 -92.5t-106.5 -41.5q-40 0 -91 41q-24 18 -80 75q-40 40 -52 40q-17 0 -72 -51q7 38 54.5 79t85.5 41q25 0 70 -34q73 -56 84 -63q54 -34 106 -34q25 0 25 50q0 8 -3 36q12 0 23 -16.5t11 -29.5zM906 -8q0 -15 -38 -44q-149 -113 -334 -113 q-206 0 -355 139q-152 142 -152 346q0 102 60 198q57 89 149 146q61 37 101 37q8 0 32.5 -17.5t32.5 -17.5q36 0 53 30q28 48 33 52q3 -17 9 -127q4 -74 37 -122q0 -17 -8 -32q-17 16 -42.5 55.5t-42.5 53.5t-54 30.5t-56 16.5q-64 0 -112 -123q-40 -102 -40 -180 q0 -101 46 -218q52 -133 129 -173q30 -16 104 -29q69 -12 110 -12q63 0 178 35q132 39 151 80q9 -3 9 -11zM247 817q10 0 19.5 -5t14.5 -14.5t5 -19.5t-5 -19.5t-14.5 -14.5t-19.5 -5t-19.5 5t-14.5 14.5t-5 19.5t5.5 19.5t14.5 14.5t19 5zM381 817q10 0 19.5 -5t14.5 -14.5 t5 -19.5t-5 -19.5t-14.5 -14.5t-19.5 -5t-19 5t-14.5 14.5t-5.5 19.5t5.5 19.5t14.5 14.5t19 5z" />
<glyph unicode="&#x410;" horiz-adv-x="846" d="M1048 -354q0 -94 -127 -153q-103 -48 -210 -48h-61q-199 0 -365 110q-171 114 -232 298q-13 37 -25 73q-13 43 -13 75q0 208 139 409q143 206 338 268q-8 2 -17 2q-93 0 -224 -39l-218 -66q10 17 89 108q64 76 73 106h20q16 -83 200 -83q16 0 46 -3t45 -3q52 0 145 13 q74 9 148 19q8 1 26 -10q-3 -10 -26 -17q-27 -9 -38 -19q-19 -18 -19 -57q0 -22 5.5 -66.5t5.5 -66.5q0 -21 -3.5 -63.5t-3.5 -63.5q0 -43 4.5 -128.5t4.5 -128.5q0 -26 15 -59q18 -40 41 -38q-2 -7 0 -7q3 -2 3 -6q0 -2 -3 -2q-18 0 -52.5 9t-51.5 9q-51 0 -201 -30 q4 17 28 26q29 10 40 29t25 153q12 120 12 165q0 35 -95 35q-21 0 -61 -1q-64 -2 -152 -44q-94 -45 -121 -95q-13 -24 -29 -122q-16 -92 -16 -129q0 -202 147 -363q151 -167 350 -167h31q102 0 181 37q102 47 102 136q0 79 -49 124t-129 45q-47 0 -88 -29q-45 -31 -45 -76 q0 -30 24 -62q25 -35 54 -35q40 0 40 33q0 14 -40 39q30 29 51 29q15 0 32.5 -17.5t17.5 -32.5q0 -31 -53 -54q-44 -18 -80 -18q-53 0 -102 28q-58 33 -58 81q0 60 90 103q77 37 144 37q95 0 186 -50q105 -60 105 -147zM610 492v90q0 21 -13 48q-11 23 -23 45 q-94 -12 -183 -86q-80 -66 -131 -158q107 40 136 49q79 24 142 24q31 0 72 -12z" />
<glyph unicode="&#x411;" horiz-adv-x="677" d="M565 441q99 -71 99 -209q0 -81 -63 -147q-54 -58 -138 -87q-59 -21 -158 -21q-109 0 -285 59q-3 11 -3 14q0 8 5 15q33 -8 59 -8q15 0 32.5 20t20.5 36q19 109 19 368v112q0 75 -21 123q-19 41 -73 101q-1 14 8 14h14q51 -54 149 -54q16 0 -27.5 -12t-27.5 -12 q11 0 190 18q-5 -10 -42.5 -22.5t-153.5 10.5q0 -35 52 -131t52 -131q0 -5 11 -13q3 1 27 10q19 8 25 8q142 0 229 -61zM370 44q76 25 121 88.5t45 144.5q0 152 -119 179q-57 13 -61 13q-63 0 -84 -35q-14 -25 -16 -93q-5 -163 -5 -217q0 -53 5 -89q30 -11 40 -11 q15 0 74 20zM705.5 658q-17.5 -36 -26.5 -36q-11 0 -15 12q5 9 5 22q0 51 -65 78q-50 21 -110 21q-6 0 -260 -13q38 -79 38 -153q0 -16 -2.5 -50t-2.5 -51l4 -472q1 -19 -37.5 32.5t-18.5 50.5q-1 -13 -11 -22l-15 -41v28q48 41 -43 -72q4 122 3 184q5 261 5 387 q0 73 -24 147q-28 88 -78 123h23q8 -14 60 -40t69 -26q51 0 153 14t153 14q65 0 127 -17q86 -25 86 -72q0 -12 -17.5 -48z" />
<glyph unicode="&#x412;" horiz-adv-x="747" d="M728 369q0 -154 -214 -287q-13 -9 -104 -42q-109 -41 -158 -41q-12 0 -31 -5q-22 -6 -30 -7q-3 -1 -63 -11q-39 -7 -63 -7q-4 0 -29 1l-2 10q19 6 48 26q46 61 46 155v423q0 108 -81 108q-11 0 -25 -2v13q38 10 66 10q5 0 13.5 5t13.5 5q31 0 112.5 25.5t117.5 25.5 q82 0 156 -28q98 -38 98 -105q0 -46 -43 -87q-8 -8 -80 -63q7 -2 21 0q19 2 22 2q97 0 155 -32q17 -10 35.5 -41.5t18.5 -50.5zM476 614q0 53 -61 94q-55 37 -111 37q-26 0 -36 -6q-14 -8 -14 -32q0 -12 3.5 -35.5t3.5 -35.5q0 -199 -7 -211h18q15 10 42 20q34 13 44 18 q44 21 79 62q39 46 39 89zM609 292q0 5 -1.5 15t-1.5 15q0 54 -83 93q-70 33 -131 33q-24 0 -72 -17q-55 -18 -59 -35q-8 -35 -10 -81q-1 -31 0 -84q2 -65 2 -81q0 -12 5 -71q4 -54 2 -63h17q21 0 50 12q24 9 48 19q234 81 234 245z" />
<glyph unicode="&#x413;" horiz-adv-x="319" d="M649.5 651q-17.5 -36 -26.5 -36q-11 0 -15 12q5 9 5 22q0 51 -65 78q-50 21 -110 21q-6 0 -260 -13q38 -79 38 -153q0 -16 -2.5 -50t-2.5 -51l4 -472q1 -19 31.5 -52t50.5 -34q-1 -13 -11 -22h-246v28q48 41 50 56q4 122 3 184q5 261 5 387q0 73 -24 147q-28 88 -78 123 h23q8 -14 60 -40t69 -26q51 0 153 14t153 14q65 0 127 -17q86 -25 86 -72q0 -12 -17.5 -48z" />
<glyph unicode="&#x414;" horiz-adv-x="897" d="M474 765q83 0 83 -17q107 -522 192 -743l139 -5l3 -3v-3l-122 -192h-6l-39 99l-456 6l-34 3q-31 -77 -54 -111l-173 203v3h190q-6 25 -6 68v14q0 239 159 441q106 162 122 237h2zM463 618q-119 -254 -119 -342l-3 -53q9 -171 29 -248h2l329 -9q-66 111 -119 268 q-51 136 -116 384h-3z" />
<glyph unicode="&#x415;" horiz-adv-x="679" d="M658 359q0 -51 -54.5 -92.5t-106.5 -41.5q-40 0 -91 41q-24 18 -80 75q-40 40 -52 40q-17 0 -72 -51q7 38 54.5 79t85.5 41q25 0 70 -34q73 -56 84 -63q54 -34 106 -34q25 0 25 50q0 8 -3 36q12 0 23 -16.5t11 -29.5zM905 -8q0 -15 -38 -44q-149 -113 -334 -113 q-206 0 -355 139q-152 142 -152 346q0 102 60 198q57 89 149 146q61 37 101 37q8 0 32.5 -17.5t32.5 -17.5q36 0 53 30q28 48 33 52q3 -17 9 -127q4 -74 37 -122q0 -17 -8 -32q-17 16 -42.5 55.5t-42.5 53.5t-54 30.5t-56 16.5q-64 0 -112 -123q-40 -102 -40 -180 q0 -101 46 -218q52 -133 129 -173q30 -16 104 -29q69 -12 110 -12q63 0 178 35q132 39 151 80q9 -3 9 -11z" />
<glyph unicode="&#x416;" horiz-adv-x="1026" d="M1619 -169q-3 -8 -36 -22q-40 -17 -44 -20q-8 0 -37 -3q-22 -3 -36 -3q-307 0 -471 144q-39 34 -119 146q-29 40 -80 135q-49 90 -82 134q-18 17 -52 53q-55 -36 -58 -41.5t-3 -69.5q0 -21 -3 -63t-3 -63q0 -133 64 -136q-1 -12 -11 -22h-245v29q14 12 29 24q16 16 20 32 q17 27 17 353q0 140 -15 188q-5 18 -49 56v28h246q10 -9 11 -21q-33 -8 -51 -52q-14 -35 -14 -74q0 -31 2 -89q2 -61 3 -89q47 28 125 131q82 108 82 154q0 14 -6 24q35 6 133 6q28 0 72 15l5 -11q-64 -66 -129 -132q-76 -75 -140 -119q50 -58 108 -162q73 -131 96 -165 q61 -89 135 -143q219 -159 441 -159q24 0 95 7zM-515 -176q229 0 455 159q76 54 138 143q24 34 99 165q60 104 112 162q-66 44 -145 119q-67 66 -133 132l6 11q45 -15 74 -15q101 0 137 -6q-6 -10 -6 -24q0 -46 84 -154q81 -103 129 -131q1 28 3 89q2 58 2 89q0 39 -14 74 q-19 44 -53 52q1 12 11 21h254v-28q-45 -38 -51 -56q-15 -48 -15 -188q0 -326 18 -353q4 -16 20 -32q16 -12 30 -24v-29h-252q-11 10 -12 22q66 3 66 136q0 21 -3 63t-3 63q0 64 -3 69.5t-60 41.5q-35 -36 -53 -53q-34 -44 -85 -134q-53 -95 -82 -135q-83 -112 -123 -146 q-169 -144 -485 -144q-14 0 -37 3q-30 3 -38 3q-4 3 -45 20q-34 14 -38 22q74 -7 98 -7z" />
<glyph unicode="&#x417;" horiz-adv-x="624" d="M233 743q135 0 216 -86q20 -26 24 -69q0 -74 -89 -149h6q174 0 202 -130l3 -22q0 -180 -235 -334q-174 -77 -248 -77q-98 -32 -151 -32h-37q-5 0 -9 22l3 3h16q128 0 380 118q143 87 143 207v13q0 75 -32 96q-101 65 -141 65h-8l-62 -6v3q116 111 116 177l3 18 q0 81 -127 124l-24 4l-132 -35l-11 -3q-30 19 -30 38l195 55h29z" />
<glyph unicode="&#x418;" horiz-adv-x="628" d="M100 405q-8 149 -9 180q-2 49 -21 73q-10 14 -38 29q-24 13 -32 29l14 13q16 0 46.5 -8.5t45.5 -8.5l153 -1v-28q-71 -16 -96 -61q-20 -36 -20 -113q0 -37 2 -110t2 -110q0 -5 -2 -36q-2 -22 1 -36q10 19 23 45q51 113 104 227q63 128 129 213q28 -2 72 -1q61 2 74.5 2 t40 2t38.5 2q8 0 14 -3l-5 -24q-56 -13 -79 -20q-10 -3 -33.5 -21.5t-23.5 -26.5q0 -19 2.5 -55.5t2.5 -54.5q0 -22 -1.5 -107.5t-1.5 -137.5q0 -186 17 -247q6 -21 39 -45q13 -9 53 -31v-25l-7 -7q-24 6 -35 10q-46 10 -181 10q-36 0 -41 2l-4 16q7 7 68 33q46 19 43 51 q6 6 6 120q0 37 -1.5 113t-1.5 113q0 -6 2 96q1 58 -2 96q-40 -57 -54 -109q-35 -43 -71 -124q-50 -107 -62 -129q-73 -129 -189 -289q-5 0 -23 -8q-14 -5 -21 -5q-4 0 -11 1.5t-11 1.5v22q56 53 67 85q24 76 24 216q0 70 -6 181z" />
<glyph unicode="&#x419;" horiz-adv-x="625" d="M84 405q-8 149 -9 180q-2 49 -21 73q-10 14 -38 29q-23 13 -32 29l15 13q15 0 45.5 -8.5t45.5 -8.5l153 -1v-28q-71 -16 -96 -61q-20 -36 -20 -113q0 -37 2 -110t2 -110q0 -5 -2 -36q-2 -22 1 -36q10 19 23 45q51 113 104 227q63 128 129 213q28 -2 72 -1q61 2 74.5 2 t40 2t38.5 2q8 0 14 -3l-5 -24q-56 -13 -79 -20q-10 -3 -33.5 -21.5t-23.5 -26.5q0 -19 2.5 -55.5t2.5 -54.5q0 -22 -1.5 -107.5t-1.5 -137.5q0 -186 17 -247q6 -21 39 -45q13 -9 53 -31v-25l-7 -7q-24 6 -35 10q-46 10 -181 10q-36 0 -41 2l-4 16q7 7 68 33q46 19 43 51 q6 6 6 120q0 37 -1.5 113t-1.5 113q0 -6 2 96q1 58 -2 96q-40 -57 -54 -109q-35 -43 -71 -124q-50 -107 -62 -129q-73 -129 -189 -289q-5 0 -23 -8q-14 -5 -21 -5q-4 0 -11 1.5t-10 1.5v22q55 53 66 85q24 76 24 216q0 70 -6 181zM172 813l61 -13l71 -46l48 42l60 21l-81 -2 l-25 -9l-71 17z" />
<glyph unicode="&#x41a;" horiz-adv-x="663" d="M1247 -169q-3 -8 -36 -22q-40 -17 -44 -20q-8 0 -37 -3q-22 -3 -36 -3q-307 0 -471 144q-39 34 -119 146q-29 40 -80 135q-49 90 -82 134q-18 17 -52 53q-55 -36 -58 -41.5t-3 -69.5q0 -21 -3 -63t-3 -63q0 -133 64 -136q-1 -12 -11 -22h-245v29q14 12 29 24q16 16 20 32 q17 27 17 353q0 140 -15 188q-5 18 -49 56v28h246q10 -9 11 -21q-33 -8 -51 -52q-14 -35 -14 -74q0 -31 2 -89q2 -61 3 -89q47 28 125 131q82 108 82 154q0 14 -6 24q35 6 133 6q28 0 72 15l5 -11q-64 -66 -129 -132q-76 -75 -140 -119q50 -58 108 -162q73 -131 96 -165 q61 -89 135 -143q219 -159 441 -159q24 0 95 7z" />
<glyph unicode="&#x41b;" horiz-adv-x="852" d="M1054 -354q0 -94 -127 -153q-103 -48 -210 -48h-61q-199 0 -365 110q-171 114 -232 298q-13 37 -25 73q-13 43 -13 75q0 208 139 409q143 206 338 268q-8 2 -17 2q-93 0 -224 -39l-218 -66q10 17 89 108q64 76 73 106h20q16 -83 200 -83q16 0 46 -3t45 -3q52 0 145 13 q74 9 148 19q8 1 26 -10q-3 -10 -26 -17q-27 -9 -38 -19q-19 -18 -19 -57q0 -22 5.5 -66.5t5.5 -66.5q0 -21 -3.5 -63.5t-3.5 -63.5q0 -43 4.5 -128.5t4.5 -128.5q0 -26 15 -59q18 -40 41 -38q-2 -7 0 -7q3 -2 3 -6q0 -2 -3 -2q-18 0 -52.5 9t-51.5 9q-51 0 -201 -30 q4 17 28 26q29 10 40 29t25 153q12 120 9 295l-30 183q-302 -160 -396 -418q-13 -24 -29 -122q-16 -92 -16 -129q0 -202 147 -363q151 -167 350 -167h31q102 0 181 37q102 47 102 136q0 79 -49 124t-129 45q-47 0 -88 -29q-45 -31 -45 -76q0 -30 24 -62q25 -35 54 -35 q40 0 40 33q0 14 -40 39q30 29 51 29q15 0 32.5 -17.5t17.5 -32.5q0 -31 -53 -54q-44 -18 -80 -18q-53 0 -102 28q-58 33 -58 81q0 60 90 103q77 37 144 37q95 0 186 -50q105 -60 105 -147z" />
<glyph unicode="&#x41c;" horiz-adv-x="890" d="M682 -82q-84 0 -94 6l-4 17q7 7 67 33q46 20 43 51q5 5 7 249l2 214q0 39 -4 65q-37 -54 -51 -104q-13 -17 -67 -110q-64 -111 -137 -241l-255 447q-5 -87 -5 -385q0 -127 7 -134q-3 -30 43 -50q60 -26 67 -33l-4 -18q-7 -3 -43 -3q-60 0 -85 -2q-17 0 -63 -11 q-40 -8 -63 -7h-5l-8 9v26q39 23 52 32q33 23 38 43q17 61 17 216q0 55 -2.5 149t-2.5 121q0 19 4 56t4 55q0 7 -23 25.5t-32 20.5q-25 8 -80 20l-5 28q9 5 21 5q29 0 110 -5q69 -4 111 -2q18 -24 36 -67q25 -62 29 -70q23 -45 69 -120q52 -83 71 -119q47 80 135 242 q4 8 27 68q16 41 34 65q21 -1 45 -1h151q5 0 15.5 3t15.5 3q8 0 15 -4l-5 -27q-27 -6 -80 -20q-9 -3 -32 -21t-23 -25q0 -18 4 -54.5t4 -54.5q0 -53 -1 -160.5t-1 -160.5q0 -118 13 -168q8 -27 91 -74v-27q-4 -5 -11 -5q6 0 -28 8q-30 6 -134 6z" />
<glyph unicode="&#x41d;" horiz-adv-x="660" d="M632 0h-246q-10 13 -11 34q22 1 48 32q23 29 26.5 54.5t3.5 80.5q0 19 1 52t1 46q0 60 -21 84q-26 30 -99 30q-85 0 -109 -34q-19 -27 -19 -115q0 -16 -1 -49v-50q0 -30 2 -46q3 -24 27.5 -54t46.5 -31q-1 -21 -11 -34h-246v41q18 13 35 27q23 18 26 33q7 35 8 91l2 92 q11 264 11 322q0 12 -54 60v40h245q10 -13 11 -34q-18 -1 -44 -24.5t-31 -41.5q-9 -29 -9 -165q0 -6 1 -13q9 2 52 21q31 13 54 13q21 0 50 -14q39 -18 49 -20q1 4 1 10q0 139 -9 168q-5 18 -31 41.5t-44 24.5q1 21 11 34h245v-40q-54 -48 -54 -60q0 -58 11 -322l2 -92 q1 -56 8 -91q3 -15 26 -33q17 -14 35 -27v-41z" />
<glyph unicode="&#x41e;" horiz-adv-x="695" d="M513 -51q-12 -4 -32 -17t-31 -17q-47 -16 -88 -16q-95 0 -197 69t-134 157q-19 54 -19 121q0 240 125 368q9 10 31.5 25t33.5 17q72 48 147 48q50 0 108 -14q67 -17 99 -43q26 -22 68.5 -94t49.5 -106q10 -47 10 -147q0 -8 -10 -54q-25 -112 -52.5 -162t-108.5 -135z M333 662q-116 0 -171 -124q-40 -92 -40 -225q0 -113 57 -209q61 -100 161 -140l34 -14h46q3 0 27 15.5t28 17.5q21 21 61 63q16 19 35 99q17 75 17 107q0 49 -7 108q-12 96 -81 193q-79 109 -167 109z" />
<glyph unicode="&#x41f;" horiz-adv-x="698" d="M387 708q-19 0 -84 -10q-70 -11 -73 -18q-16 -36 -18 -219q2 219 2 -241q0 -33 -2 -107q-2 -69 -2 -107l1 -28q3 -7 9 -30q5 -19 35 -31q25 -9 49 -17v-8q-5 -8 -23 -8q-12 0 -35.5 3.5t-35.5 3.5q-43 0 -113.5 -26t-76.5 -26q-10 0 -14 5q6 11 54 47q36 28 36 65 q0 72 1.5 217t1.5 217q0 40 3.5 118t3.5 118q0 43 7 44q-8 0 -13 -5q44 1 19 -2q-51 -7 -51 7q-7 -5 -47.5 -39.5t-45.5 -34.5q-13 0 -13 13q0 8 42 58q26 31 14 49l8 22q7 16 12 16q14 0 22 -23q29 -35 43 -35q-7 -4 126 11q159 18 158 1zM735 716h-14q3 0 -37.5 8t-85.5 8 q-19 0 38 -3q-18 2 -21 -5q-16 -36 -18 -219q2 219 2 -241q0 -33 -2 -107q-2 -69 -2 -107l1 -28q3 -7 9 -30q5 -19 35 -31q25 -9 49 -17v-8q-5 -8 -23 -8q-12 0 -35.5 3.5t-35.5 3.5q-43 0 -113.5 -26t-76.5 -26q-10 0 -14 5q6 11 54 47q36 28 36 65q0 72 1.5 217t1.5 217 q0 40 3.5 118t3.5 118q0 43 -37 43q-8 0 -13 -5q-66 -2 -91 -5l-60 13q191 20 324 35q-15 -2 22 21q20 12 28 36q10 28 20 38l16 -12q9 -15 -3 -31t1 -31t37 -44v-12z" />
<glyph unicode="&#x420;" horiz-adv-x="686" d="M333 178q-6 0 -25 8q-24 9 -27 10q-11 -8 -11 -13q0 -35 6 -105t6 -105q0 -28 20 -45.5t41 -33.5q-12 -8 -23 -8q-16 0 -46.5 9t-46.5 9q-98 0 -149 -54h-14q-9 0 -8 14q54 60 73 101q21 48 21 123v111q0 258 -19 367q-3 16 -20.5 36t-32.5 20q-26 0 -59 -8q-5 7 -5 15 q0 3 3 14q176 59 285 59q99 0 158 -21q84 -29 138 -87q63 -66 63 -147q0 -137 -99 -208q-87 -61 -229 -61zM293 655q-10 0 -40 -11q-5 -36 -5 -89q0 -54 5 -216q2 -68 16 -93q21 -35 84 -35q4 0 61 13q119 27 119 178q0 81 -45 144.5t-121 88.5q-59 20 -74 20z" />
<glyph unicode="&#x421;" horiz-adv-x="721" d="M910 -120q0 -72 -73.5 -122.5t-164.5 -50.5q-14 0 -27 1l-79 8q-155 16 -295 127q-131 104 -207 255q-11 23 -25 96q-13 69 -13 99q0 182 105 303q109 126 286 126q28 0 79 -16.5t78 -16.5q34 0 53 31q14 30 28 59q8 -17 10 -65q1 -51 8 -71q9 -33 19 -66q15 -51 28 -63 q-5 1 -9 1q-6 0 -7.5 -3t-2.5 -3q-2 1 -7 5l-104 106q-80 66 -200 66q-50 0 -96 -36q-113 -90 -113 -295v-33q1 -23 1 -34q0 -107 60 -230.5t154 -203.5q103 -89 209 -89q268 0 268 101q0 23 -25 45t-49 22q-7 0 -36 -12q-5 5 -5 16q0 24 23 38.5t47 14.5q42 0 63 -36 q19 -30 19 -74z" />
<glyph unicode="&#x422;" horiz-adv-x="554" d="M808 662h-14q3 0 -58.5 27.5t-106.5 27.5q-19 0 -84 -10q-70 -11 -73 -18q-16 -36 -18 -219q2 219 2 -241q0 -33 -2 -107q-2 -69 -2 -107l1 -28q3 -7 9 -30q5 -19 35 -31q25 -9 49 -17v-8q-5 -8 -23 -8q-12 0 -35.5 3.5t-35.5 3.5q-43 0 -113.5 -26t-76.5 -26 q-10 0 -14 5q6 11 54 47q36 28 36 65q0 72 1.5 217t1.5 217q0 40 3.5 118t3.5 118q0 43 -37 43q-8 0 -13 -5q-66 -2 -91 -5q-51 -7 -87 -26q-7 -5 -47.5 -39.5t-45.5 -34.5q-13 0 -13 13q0 8 42 58q26 31 50 82l8 22q7 16 12 16q14 0 22 -23q29 -35 111 -35q79 0 212 15 q159 18 196 41q20 12 28 36q10 28 20 38l16 -12q9 -15 18 -50.5t22 -50.5t37 -44v-12z" />
<glyph unicode="&#x423;" horiz-adv-x="628" d="M739 716l-10 -32q-70 -15 -169 -173q-71 -112 -165 -314q-59 -125 -117 -250q-129 -251 -260 -409q-91 -110 -187 -180q-125 -91 -234 -93h-7q-78 -2 -136.5 59t-58.5 140q0 64 55 112q51 43 117 51q-18 -31 -41 -53q-20 -18 -24 -31q-8 -22 -8 -79q0 -42 32 -96 q35 -60 73 -60h34q31 0 169 91q240 160 459 626q-62 189 -125 377q-98 269 -199 302q1 7 -3 8.5t-4 9.5l2 5q27 -1 81 -10t82 -9q31 0 78 7q69 10 77 11q-8 -8 -54 -50l-1 -6q-4 -53 57 -249q43 -131 85 -263q90 192 100 215q72 164 72 209q0 41 -33 79q-47 54 -54 67 q17 -3 75 -19q47 -13 75 -13q27 0 70 5q58 6 69 7h6q5 0 12 3.5t10 4.5z" />
<glyph unicode="&#x424;" horiz-adv-x="898" d="M561 178q-6 0 -25 8q-24 9 -27 10q-11 -8 -11 -13q0 -35 6 -105t6 -105q0 -28 20 -45.5t41 -33.5q-12 -8 -23 -8q-16 0 -46.5 9t-46.5 9q-98 0 -149 -54h-14q-9 0 -8 14q54 60 73 101q21 48 21 123v111q0 258 -19 367q-3 16 -20.5 36t-32.5 20q-26 0 -59 -8q-5 7 -5 15 q0 3 3 14q176 59 285 59q99 0 158 -21q84 -29 138 -87q63 -66 63 -147q0 -137 -99 -208q-87 -61 -229 -61zM521 655q-10 0 -40 -11q-5 -36 -5 -89q0 -54 5 -216q2 -68 16 -93q21 -35 84 -35q4 0 61 13q119 27 119 178q0 81 -45 144.5t-121 88.5q-59 20 -74 20zM108 239 q-95 71 -95 208q0 81 61 147q52 58 133 87q56 21 152 21q105 0 274 -59q3 -11 3 -14q0 -8 -5 -15q-32 8 -57 8q-14 0 -31 -20t-20 -36q-18 -109 -18 -367v-111q0 -75 20 -123q19 -41 71 -101q1 -14 -8 -14h-14q-49 54 -143 54q-16 0 -45 -9t-45 -9q-10 0 -22 8 q20 16 39.5 33.5t19.5 45.5q0 35 5.5 105t5.5 105q0 5 -10 13q-3 -1 -26 -10q-18 -8 -24 -8q-137 0 -221 61zM296 635q-73 -25 -116.5 -88.5t-43.5 -144.5q0 -151 115 -178q55 -13 59 -13q60 0 80 35q14 25 16 93q5 162 5 216q0 53 -5 89q-29 11 -39 11q-14 0 -71 -20z" />
<glyph unicode="&#x425;" horiz-adv-x="868" d="M856 720q-43 -11 -80 -41q-18 -15 -64 -65q-24 -20 -72 -64q-48 -48 -148 -168q56 -89 159 -201q121 -131 191 -156l-1 -26q-13 1 -120 13q-73 8 -121 8q-14 0 -41.5 -7t-41.5 -7q-9 0 -9 18q65 39 65 61q0 5 -79 110q-68 90 -94 122q-11 -22 -104 -123q-87 -95 -87 -107 q0 -11 17 -31.5t29 -20.5q9 0 23 -10l-8 -26q-105 8 -146 8q-19 0 -49 -5q-40 -8 -49 -9q0 7 -6 9.5t-6 3.5q0 2 2 4q60 15 132 81q54 48 123 133q51 63 101 127q-55 90 -155 199q-118 131 -187 156l1 25q13 -1 120 -13q73 -8 120 -8q15 0 42.5 7t41.5 7q8 0 8 -17 q-65 -40 -65 -62q0 -1 76.5 -106.5t89.5 -122.5q12 23 109 125q90 95 90 107q0 8 -6 12q-9 7 -11 10t-5 15q-1 5 -12 8t-35 13l8 25q105 -8 145 -8q20 0 50 6q39 7 48 8q0 -6 6 -9t6 -4q0 -2 -1 -4z" />
<glyph unicode="&#x426;" horiz-adv-x="827" d="M23 754q184 -51 273 -170q66 -107 66 -311l-14 -193h173l-144 -4h4l86 -3l76 10l-7 59v69q0 399 246 536l24 7h7q-93 -91 -128 -242q-35 -161 -35 -291q0 -57 14 -145h135l2 -77l-48 -155l-43 157l-618 -1l-7 7v62l7 7h121q28 101 28 183v52q0 255 -163 401 q-46 35 -55 35v7z" />
<glyph unicode="&#x427;" horiz-adv-x="653" d="M275 774l5 -5v-56l-42 -21q-73 -66 -73 -146v-4q0 -128 124 -193q41 -14 73 -14h110v141l2 224q-40 26 -54 40v29l5 5h211l5 -5v-31q-17 -17 -52 -38v-645l50 -5v-45l-5 -5h-209l-5 5v45h52v203q-311 0 -432 134q-30 47 -30 96v7q0 111 117 207q-61 30 -61 35l3 37l-3 3 l3 2h206z" />
<glyph unicode="&#x428;" horiz-adv-x="1094" d="M10 754q184 -51 273 -170q66 -107 66 -311l-14 -193h173l3 172v180l4 197q-59 25 -59 32v65l7 7h228l7 -7v-65l-45 -32v-553h4l86 -3l76 10l-7 59v69q0 399 246 536l24 7h7q-93 -91 -128 -242q-35 -161 -35 -291q0 -57 14 -145h135l7 -7v-62l-7 -7h-996l-7 7v62l7 7h121 q28 101 28 183v52q0 255 -163 401q-46 35 -55 35v7z" />
<glyph unicode="&#x429;" horiz-adv-x="1135" d="M26 754q184 -51 273 -170q66 -107 66 -311l-14 -193h173l3 172v180l4 197q-59 25 -59 32v65l7 7h228l7 -7v-65l-45 -32v-553h4l86 -3l76 10l-7 59v69q0 399 246 536l24 7h7q-93 -91 -128 -242q-35 -161 -35 -291q0 -57 14 -145h142v-77l-39 -140l-41 141h-923l-7 7v62 l7 7h121q28 101 28 183v52q0 255 -163 401q-46 35 -55 35v7z" />
<glyph unicode="&#x42a;" horiz-adv-x="686" d="M562 400q99 -70 99 -207q0 -81 -63 -146q-54 -58 -138 -87q-59 -21 -158 -21q-109 0 -285 59q-3 11 -3 14q0 8 5 15q33 -8 59 -8q15 0 32.5 20t20.5 36q19 108 19 365v66q3 46 -11 89q-90 171 -103 -21q-29 76 -11 220l53 -6q67 -35 149 -54q16 0 46.5 9t46.5 9 q11 0 23 -8q-21 -16 -41 -33.5t-20 -45.5q0 -34 -6 -104t-6 -105q0 -5 11 -13q3 1 27 10q19 8 25 8q142 0 229 -61zM367 6q76 25 121 88t45 144q0 150 -119 177q-57 13 -61 13q-63 0 -84 -35q-14 -25 -16 -92q-5 -162 -5 -216q0 -52 5 -88q30 -11 40 -11q15 0 74 20z" />
<glyph unicode="&#x42b;" horiz-adv-x="872" d="M871 -52l-5 -3h-109q-74 2 -109 2l4 6l-8 9q4 7 31 30q23 17 23 34v492q0 13 -1.5 40.5t-1.5 40.5l-8 19q-2 5 1.5 12.5t1.5 27.5l-16 23q-34 42 -45.5 58.5t-21.5 16.5q-5 11 -5 23q81 -14 105.5 -26t77.5 -3l65 42q10 -19 10 -16q-31 -36 -46 -51t-15 -58l1 -450 q0 -16 -2.5 -46.5t-2.5 -45.5q0 -87 30 -127q5 -8 22 -18.5t23 -19.5zM556 403q99 -70 99 -207q0 -81 -63 -146q-54 -58 -138 -87q-59 -21 -158 -21q-109 0 -285 59q-3 11 -3 14q0 8 5 15q33 -8 59 -8q15 0 32.5 20t20.5 36q19 108 19 365v111q0 75 -21 122q-19 41 -73 101 q-1 14 8 14h14q51 -54 149 -54q16 0 46.5 9t46.5 9q11 0 23 -8q-21 -16 -41 -33.5t-20 -45.5q0 -34 -6 -104t-6 -105q0 -5 11 -13q3 1 27 10q19 8 25 8q142 0 229 -61zM361 9q76 25 121 88t45 144q0 150 -119 177q-57 13 -61 13q-63 0 -84 -35q-14 -25 -16 -92 q-5 -162 -5 -216q0 -52 5 -88q30 -11 40 -11q15 0 74 20z" />
<glyph unicode="&#x42c;" horiz-adv-x="686" d="M565 400q99 -70 99 -207q0 -81 -63 -146q-54 -58 -138 -87q-59 -21 -158 -21q-109 0 -285 59q-3 11 -3 14q0 8 5 15q33 -8 59 -8q15 0 32.5 20t20.5 36q19 108 19 365v111q0 75 -21 122q-19 41 -73 101q-1 14 8 14h14q51 -54 149 -54q16 0 46.5 9t46.5 9q11 0 23 -8 q-21 -16 -41 -33.5t-20 -45.5q0 -34 -6 -104t-6 -105q0 -5 11 -13q3 1 27 10q19 8 25 8q142 0 229 -61zM370 6q76 25 121 88t45 144q0 150 -119 177q-57 13 -61 13q-63 0 -84 -35q-14 -25 -16 -92q-5 -162 -5 -216q0 -52 5 -88q30 -11 40 -11q15 0 74 20z" />
<glyph unicode="&#x42d;" horiz-adv-x="673" d="M29 388.5q11 16.5 23 16.5q-3 -28 -3 -36q0 -50 25 -50q52 0 107 34q11 7 84 63q46 34 71 34q38 0 86 -41t55 -79q-56 51 -73 51q-12 0 -52 -40q-56 -57 -81 -75q-51 -41 -91 -41q-53 0 -107.5 41.5t-54.5 92.5q0 13 11 29.5zM-221 3q19 -41 152 -80q115 -35 178 -35 q42 0 111 12q75 13 105 29q77 40 130 173q46 117 46 218q0 78 -40 180q-49 123 -113 123q-19 0 -56.5 -16.5t-54.5 -30.5t-42.5 -53.5t-42.5 -55.5q-8 15 -8 32q33 48 37 122q6 110 9 127q5 -4 33 -52q17 -30 53 -30q8 0 33 17.5t33 17.5q40 0 102 -37q92 -57 150 -146 q60 -96 60 -198q0 -204 -153 -346q-150 -139 -357 -139q-186 0 -336 113q-39 29 -39 44q0 8 10 11z" />
<glyph unicode="&#x42e;" horiz-adv-x="923" d="M272 -26l-5 -2h-109q-74 1 -109 1l4 7l-8 8q4 7 31 27q23 17 23 33v467q0 13 -1.5 39t-1.5 37l-8 19q-2 5 1.5 12t1.5 26l-16 22q-34 40 -45.5 55t-21.5 15q-5 11 -5 23q81 -14 105.5 -25.5t77.5 -2.5l65 40q10 -18 10 -15q-31 -34 -46 -48.5t-15 -55.5l1 -427 q0 -14 -2.5 -43t-2.5 -44q0 -82 30 -120q5 -8 22 -17.5t23 -18.5zM739 22q-12 -4 -32 -17t-31 -17q-47 -16 -88 -16q-95 0 -197 69t-134 157q-19 54 -19 121q0 240 125 368q9 10 31.5 25t33.5 17q72 48 147 48q50 0 108 -14q67 -17 99 -43q26 -22 68.5 -94t49.5 -106 q10 -47 10 -147q0 -8 -10 -54q-25 -112 -52.5 -162t-108.5 -135zM540 735q-116 0 -171 -124q-40 -92 -40 -225q0 -113 57 -209q61 -100 161 -140l34 -14h46q3 0 27 15.5t28 17.5q21 21 61 63q16 19 35 99q17 75 17 107q0 49 -7 108q-12 96 -81 193q-79 109 -167 109z M308 460h8q-1 -67 -14.5 -104t-32.5 -37q-8 0 -18.5 8t-52.5 53q-29 33 -41 33q-14 0 -23 -22t-13 -71h-8q1 69 14 105.5t30 36.5q9 0 17 -8q20 -15 52.5 -52t45.5 -37q14 0 24 24.5t12 70.5z" />
<glyph unicode="&#x42f;" horiz-adv-x="891" d="M-537 -185q15 -1 31 -1q194 0 491 161q15 4 102 78q74 63 105 93q48 48 97 95q56 51 109 76q-234 78 -234 225q0 101 92 143q56 26 177 36q6 0 22 3t25 3q78 0 211 -26l56 -12q20 0 58.5 9.5t58.5 9.5q11 0 21 -16q-12 -15 -37 -24q-31 -13 -39 -18q-14 -11 -20 -16 q-47 -25 -61 -93q-7 -36 -7 -118q0 -15 4 -43.5t4 -43.5q0 10 -3 -97q-2 -58 4 -96q8 -53 69 -98q72 -54 86 -80h-17q-21 21 -106 33q-61 9 -115 9q-36 0 -108 -4t-108 -4q-14 0 -21 1l2 29q149 18 163 47q25 51 25 194q0 46 -4 59q-83 -26 -176 -105q-47 -39 -159 -154 q-97 -98 -154 -139q-154 -110 -379 -133q-7 -1 -68 -4q-41 -3 -68 -8q-57 7 -98 7q-31 2 -31 6v16zM373 632q-70 -51 -70 -143q0 -67 56 -104q49 -32 121 -32q120 0 120 95q0 37 -8 105q-7 73 -8 106q-13 16 -54 16q-94 0 -157 -43z" />
<glyph unicode="&#x430;" horiz-adv-x="532" d="M529 3v-3h-5q-15 0 -43 3.5t-42 3.5h-61q-9 0 -24.5 -3.5t-22.5 -3.5q20 48 35 129q14 78 14 134q0 58 -27 58q-3 0 -10 -3t-10 -3q-121 0 -164 -115q-17 -47 -17 -55q0 -45 57 -79q51 -30 103 -30q9 0 16 1l-11 -13v1q-45 -26 -98 -26q-73 0 -122 23q-65 30 -65 95 q0 67 63 113q41 30 132 62q97 34 118 47q8 5 8 17q0 13 -11 26t-24 13q-57 0 -160 -39t-156 -39q25 23 70 74q12 21 40 60q8 -10 31 -29q23 -12 85 -12q18 0 53.5 4t53.5 4q41 0 82.5 -30t46.5 -69q3 -25 6 -140q2 -86 18 -139q11 -8 35 -18q0 -4 3 -10t3 -9z" />
<glyph unicode="&#x431;" horiz-adv-x="384" d="M296 214q51 -37 51 -107q0 -41 -32 -75q-28 -30 -71 -44q-30 -11 -80 -11q-56 0 -145 30q-2 6 -2 7q0 4 3 8q16 -4 30 -4q7 0 16 10t11 18q9 56 9 188v57q0 38 -10 63q-10 21 -38 51q0 7 4 7h8q26 -27 76 -27q8 0 -14.5 -6t-13.5 -6q5 0 96 9q-2 -5 -21 -11.5t-78 5.5 q0 -18 26.5 -67t26.5 -67q0 -2 5 -6q2 0 14 5q10 4 13 4q72 0 116 -31zM197 11q39 13 62 45.5t23 73.5q0 77 -61 91q-29 7 -31 7q-32 0 -43 -18q-7 -13 -8 -47q-3 -84 -3 -111t3 -45q15 -6 20 -6q8 0 38 10zM368 324.5q-9 -18.5 -13 -18.5q-6 0 -8 6q2 5 2 11q0 26 -33 40 q-25 11 -56 11q-3 0 -132 -7q19 -40 19 -78q0 -8 -1.5 -25.5t-1.5 -25.5l3 -241q0 -9 -19.5 17t-9.5 25q-1 -6 -6 -11l-7 -21v14q24 21 -22 -36q2 62 1 93q3 134 3 198q0 37 -12 75q-15 45 -40 62h12q4 -7 30.5 -20t34.5 -13q26 0 78 7t78 7q34 0 65 -9q44 -12 44 -36 q0 -6 -9 -24.5z" />
<glyph unicode="&#x432;" horiz-adv-x="415" d="M406 187q0 -84 -116 -157q-7 -4 -57 -22q-59 -22 -86 -22q-6 0 -17 -3l-16 -4q-2 0 -34 -6q-22 -4 -35 -4q-2 0 -15 1l-1 5q10 4 26 15q25 32 25 83v231q0 58 -44 58q-6 0 -14 -1v7q21 6 36 6q3 0 7.5 2.5t7.5 2.5q16 0 60.5 14t64.5 14q44 0 85 -15q53 -21 53 -57 q0 -26 -24 -48q-4 -4 -43 -34q4 -1 11 0q11 1 12 1q53 0 85 -17q9 -6 19 -23t10 -27zM269 320q0 29 -33 51q-30 20 -61 20q-14 0 -19 -3q-8 -5 -8 -18q0 -6 2 -19t2 -19q0 -108 -4 -115h10q8 5 23 11q18 7 24 10q24 11 43 33q21 25 21 49zM341 145q0 2 -0.5 7.5t-0.5 8.5 q0 29 -46 51q-38 18 -71 18q-13 0 -39 -10q-30 -10 -32 -19q-4 -19 -5 -44q-1 -17 0 -45q1 -36 1 -45q0 -6 2 -38q3 -29 1 -34h10q11 0 27 6l26 10q127 44 127 134z" />
<glyph unicode="&#x433;" horiz-adv-x="401" d="M178 388q33 37 100 37q45 0 79.5 -29t34.5 -73q0 -34 -23.5 -59.5t-57.5 -25.5q-25 0 -35 6q-3 2 -24 24v17l9 -1q12 0 21.5 9t9.5 21q0 23 -18.5 38.5t-42.5 15.5q-74 0 -73 -131q1 -10 1.5 -28.5t0.5 -26.5q0 -53 -3 -99l11 -8q-1 -17 21 -34q2 -1 38 -24v-17 q-15 -2 -27 -2q-18 0 -52.5 4.5t-51.5 4.5q-35 0 -78 -8v19q31 18 40 40q7 15 7 56q0 34 -2.5 100.5t-2.5 100.5q0 76 -47 75v36q33 -16 55 -16q10 0 31 2t32 2q20 0 60 -2q-6 -6 -13 -24z" />
<glyph unicode="&#x434;" horiz-adv-x="500" d="M544 371l-5 -9q-7 0 -23 1h-23q-13 0 -28 -10l-16 -21l-2 -203q1 -33 -1 -97q-10 -95 -85 -192q-86 -110 -230 -196q-157 -93 -283 -93q-68 0 -130 12q-17 7 -54 18q-32 9 -68 33q-30 23 -61 46q-48 33 -73 39v18l230 1q13 0 38 16l11 -10l-30 -22q-19 -16 -19 -28 q0 -23 70 -45q60 -20 91 -20q92 0 213 62t203 153q92 100 92 194q-20 -15 -87 -15q-6 0 -17 -1.5t-16 -1.5q-11 0 -30 4.5t-28 5.5q-84 36 -121 83q-42 54 -42 140q0 21 15 65.5t28 57.5q57 58 134 58q43 0 85 -24q22 -13 45 -26q-3 34 -10 101h13q37 -33 103 -56 q55 -19 111 -38zM336 126q0 29 -3 86t-3 84.5t-19.5 50.5t-46.5 23q-6 0 -51 -17q-48 -17 -72 -77q-21 -49 -21 -108q0 -49 32 -90q34 -44 82 -44q31 0 60 8q41 12 41 34z" />
<glyph unicode="&#x435;" horiz-adv-x="409" d="M396 62q-21 -30 -81 -48q-49 -14 -96 -14q-74 0 -140 60.5t-66 133.5q0 225 199 225q70 0 123 -54.5t54 -125.5q-23 -12 -81 -12q-28 0 -84.5 4t-84.5 4q-14 0 -23 -7q0 -75 45 -130q48 -60 122 -60q21 0 58 12t55 12zM297 277q0 35 -29 75q-32 44 -65 44q-27 0 -58 -51 q-29 -46 -29 -76q0 -11 5 -15q16 1 34 1q23 0 69 -2.5t68 -2.5q5 12 5 27z" />
<glyph unicode="&#x436;" horiz-adv-x="782" d="M850 -13q-28 0 -82.5 12t-83.5 12q-49 0 -74 -24q-10 2 -24 34q17 0 32.5 20.5t15.5 37.5q0 48 -134 201q-20 -13 -40 -25q-22 -17 -22 -40q0 -38 20 -93q23 -60 50 -77q5 -4 32 -17l3 -28h-80q-20 0 -63 2t-66 2l-39 -1q-10 -4 -31 -4.5t-29 -3.5l-11 12q1 8 26 21 q33 17 40 23q42 36 42 124q0 12 -1 35.5t-1 33.5q0 44 -3 82q-2 74 -4 149q-9 -41 -9 -15q-10 2 2 2q5 0 -8 10l11 16q2 23 68 68q-4 -43 5 -31l2 -9q0 -11 -9 -29q32 21 40 29q1 -49 4 -137q0 -67 12 -109q41 25 77 64q44 49 44 86q0 18 -10 32q31 2 93 13q3 1 56 23 q34 14 60 14l5 -12q-44 -47 -187 -150q24 -29 78 -120t87 -133q54 -66 106 -82v-18zM-68 11q51 16 103 82q31 42 83.5 133t75.5 120q-138 103 -181 150l5 12q25 0 58 -14q51 -22 54 -23q60 -11 90 -13q-9 -14 -9 -32q0 -37 42 -86q35 -39 75 -64q11 42 11 109q-3 88 15 105 q9 12 15 -26q-8 18 -8 29l2 9q16 26 11 60q64 -45 70 -58l11 -16q-13 -10 -3 -10q8 0 -2 -2q-6 -36 -8 5q-2 -75 -4 -149q-3 -38 -3 -82q0 -10 -1 -33.5t-1 -35.5q0 -88 41 -124q6 -6 38 -23q24 -13 25 -21l-10 -12q-8 3 -28.5 3.5t-29.5 4.5l-38 1q-22 0 -63.5 -2t-61.5 -2 h-77l3 28q26 13 31 17q26 17 48 77q19 55 19 93q0 23 -21 40q-19 12 -39 25q-129 -153 -129 -201q0 -17 15 -37.5t31 -20.5q-13 -32 -23 -34q-24 24 -71 24q-29 0 -81 -12t-80 -12v18z" />
<glyph unicode="&#x437;" horiz-adv-x="432" d="M167 409q96 0 154 -86q15 -26 18 -69q0 -74 -64 -149h4q125 0 145 -129l2 -22q0 -181 -168 -335q-125 -77 -178 -77q-70 -32 -108 -32h-27q-3 0 -6 22l2 3h12q91 0 272 118q102 87 102 208v12q0 75 -23 96q-72 65 -100 65h-6l-45 -6v3q83 111 83 177l2 18q0 81 -90 124 l-18 4l-94 -35l-8 -3q-21 19 -21 38l139 55h21z" />
<glyph unicode="&#x438;" horiz-adv-x="586" d="M571 409q-22 -10 -43 -20q-24 -13 -29 -35q-5 -27 -6 -62q-1 -25 -1 -63q1 -56 1 -63q0 -108 18 -137q8 -12 24 -14q21 -2 27 -5l5 -10h-185v10q30 19 30 54q0 9 -2 15q-1 0 -34 -28q-43 -38 -110 -51q-43 -8 -122 -8q-47 0 -88 34t-41 80q0 63 50 119q38 41 113 86 q59 33 117 66l1 4l-5 1q-40 0 -131 -27q-79 -23 -130 -45q36 30 56 73q24 52 40 71q21 -10 29 -22.5t18 -16.5q19 -7 75 -12v-1q18 1 67 8q42 6 67 6l2 -14q-27 -22 -111 -72q-68 -40 -96 -74q-41 -50 -41 -125q0 -42 45 -74q41 -31 84 -31q41 0 89.5 38t52.5 77t3 98 q-3 97 -3 96v82q7 3 13 3q12 0 35.5 -5.5t36.5 -5.5q7 0 77 16z" />
<glyph unicode="&#x439;" horiz-adv-x="586" d="M571 409q-22 -10 -43 -20q-24 -13 -29 -35q-5 -27 -6 -62q-1 -25 -1 -63q1 -56 1 -63q0 -108 18 -137q8 -12 24 -14q21 -2 27 -5l5 -10h-185v10q30 19 30 54q0 9 -2 15q-1 0 -34 -28q-43 -38 -110 -51q-43 -8 -122 -8q-47 0 -88 34t-41 80q0 63 50 119q38 41 113 86 q59 33 117 66l1 4l-5 1q-40 0 -131 -27q-79 -23 -130 -45q36 30 56 73q24 52 40 71q21 -10 29 -22.5t18 -16.5q19 -7 75 -12v-1q18 1 67 8q42 6 67 6l2 -14q-27 -22 -111 -72q-68 -40 -96 -74q-41 -50 -41 -125q0 -42 45 -74q41 -31 84 -31q41 0 89.5 38t52.5 77t3 98 q-3 97 -3 96v82q7 3 13 3q12 0 35.5 -5.5t36.5 -5.5q7 0 77 16zM307 485l32 -9l48 -32l32 28l42 13h-67l-10 -19l-32 19h-45z" />
<glyph unicode="&#x43a;" horiz-adv-x="659" d="M663 -13q-28 0 -82.5 12t-83.5 12q-49 0 -74 -24q-10 2 -24 34q17 0 32.5 20.5t15.5 37.5q0 48 -134 201q-20 -13 -40 -25q-22 -17 -22 -40q0 -38 20 -93q23 -60 50 -77q5 -4 32 -17l3 -28h-80q-20 0 -63 2t-66 2l-39 -1q-10 -4 -31 -4.5t-29 -3.5l-11 12q1 8 26 21 q33 17 40 23q42 36 42 124q0 12 -1 35.5t-1 33.5q0 44 -3 82q-2 74 -4 149q-6 106 -38 132q-10 2 -52 2q-37 0 -50 10l11 16q130 23 196 68q28 21 88 55l2 -9q0 -11 -9 -29l-14 -28q-28 -78 -28 -313q0 -67 12 -109q41 25 77 64q44 49 44 86q0 18 -10 32q31 2 93 13 q3 1 56 23q34 14 60 14l5 -12q-44 -47 -187 -150q24 -29 78 -120t87 -133q54 -66 106 -82v-18z" />
<glyph unicode="&#x43b;" horiz-adv-x="627" d="M774 -408q0 -69 -93 -112q-75 -35 -153 -35h-44q-145 0 -266 81q-125 83 -169 217q-10 27 -19 53q-9 31 -9 55q0 151 101 297q105 151 247 196q-6 1 -13 1q-67 0 -163 -28q-79 -24 -159 -48q7 12 65 78q47 56 53 78h15q11 -61 146 -61q11 0 33 -2t33 -2q38 0 106 9 q54 7 107 14q6 1 19 -7q-2 -7 -19 -13q-19 -6 -27 -13q-14 -14 -14 -42q0 -16 4 -48.5t4 -48.5q0 -15 -2.5 -46t-2.5 -46q0 -32 3 -94t3 -93q0 -19 11 -43q13 -29 30 -28q-1 -5 0 -5q2 -2 2 -4t-2 -2q-13 0 -38 6.5t-38 6.5q-37 0 -146 -22q3 13 20 19q21 8 29 21.5 t19 111.5q8 87 6 214l-22 134q-220 -117 -288 -305q-10 -17 -21 -88q-12 -67 -12 -94q0 -148 107 -265q110 -122 255 -122h23q74 0 132 27q74 35 74 99q0 58 -35.5 91t-94.5 33q-34 0 -64 -21q-33 -23 -33 -56q0 -22 18 -45q18 -26 39 -26q29 0 29 24q0 11 -29 29 q22 21 37 21q11 0 24 -12.5t13 -23.5q0 -23 -39 -40q-32 -13 -58 -13q-39 0 -74 21q-43 24 -43 59q0 43 66 75q56 27 105 27q69 0 135 -37q77 -44 77 -107z" />
<glyph unicode="&#x43c;" horiz-adv-x="576" d="M434 -87q-53 0 -60 3l-2 11q4 5 42 21q30 13 28 33q3 3 4 158l1 136q0 25 -2 41q-24 -34 -33 -66q-8 -11 -42 -70q-41 -71 -87 -153l-163 284q-3 -55 -3 -245q0 -80 5 -85q-2 -19 27 -31q38 -17 43 -21l-3 -12q-4 -2 -27 -2q-39 0 -54 -1q-11 0 -41 -7q-25 -5 -40 -5h-3 l-5 6v17q25 14 33 20q21 15 24 27q11 39 11 137q0 35 -1.5 95t-1.5 77q0 12 2.5 35.5t2.5 35.5q0 4 -14.5 16t-20.5 13q-16 5 -51 13l-3 18q6 3 13 3q19 0 70 -3q44 -3 71 -1q11 -16 23 -43l18 -45q15 -28 44 -76q33 -53 46 -76q29 51 85 154q3 5 18 43q10 27 21 42 q14 -1 29 -1h96q3 0 10 2t10 2q5 0 9 -2l-3 -18q-17 -3 -51 -12q-6 -2 -20.5 -13.5t-14.5 -16.5q0 -11 2.5 -34.5t2.5 -34.5q0 -34 -0.5 -102.5t-0.5 -101.5q0 -75 8 -107q5 -17 58 -47v-17q-2 -3 -7 -3q4 0 -18 5q-19 4 -85 4z" />
<glyph unicode="&#x43d;" horiz-adv-x="402" d="M393 0h-149q-6 8 -7 21q14 0 29 19q14 18 16 33.5t2 48.5q0 11 1 31t1 28q0 37 -13 51q-16 18 -60 18q-52 0 -66 -20q-12 -17 -12 -70v-30v-30q0 -18 1 -28q2 -14 16.5 -32.5t28.5 -18.5q-1 -13 -7 -21h-149v25q11 8 21 16q14 11 16 20q4 21 5 55q0 28 1 56q7 160 7 195 q0 8 -33 37v24h149q6 -8 6 -21q-11 0 -26.5 -14.5t-18.5 -25.5q-6 -17 -6 -100q0 -3 1 -8q5 2 31 13q19 8 33 8q13 0 30 -8q24 -11 30 -13q1 3 1 7q0 84 -6 101q-3 11 -18.5 25.5t-26.5 14.5q0 13 6 21h149v-24q-33 -29 -33 -37q0 -35 7 -195q1 -28 1 -56q1 -34 5 -55 q2 -9 16 -20q10 -8 21 -16v-25z" />
<glyph unicode="&#x43e;" horiz-adv-x="471" d="M459 219q0 -146 -128 -199q-49 -20 -61 -20h-106q-54 0 -103 68q-47 64 -47 120q0 74 36.5 130t105.5 81q55 20 86 20q80 0 147 -59q70 -62 70 -141zM359 203q0 64 -34 118q-38 62 -99 62q-53 0 -84 -70q-25 -55 -25 -116q0 -46 12 -71q18 -37 46 -65q35 -34 69 -34 q6 0 18.5 1.5t19.5 1.5t33 31q44 54 44 142z" />
<glyph unicode="&#x43f;" horiz-adv-x="562" d="M310 0q10 15 43 37q86 59 86 190q0 60 -40 91q-36 29 -98 29q-60 0 -85 -25.5t-25 -84.5v-49q0 -59 12 -98q13 -43 49 -89q-7 -8 -18 -8q-18 0 -52 11.5t-52 11.5q-15 0 -41 -5q-32 -8 -47 -10q5 8 29 26t24 81q0 7 5 19.5t5 18.5v109q0 15 -6.5 47.5t-13.5 39.5 q-23 -2 -76 2q4 10 36 18l40 8q22 9 106 53q11 -15 10 -75l5 -4q115 71 185 71q132 0 132 -127q0 -61 -48 -150q-51 -92 -104 -117l1 -1q32 3 83.5 28.5t77.5 49.5q6 -36 17 -108q-39 0 -119 5t-121 5z" />
<glyph unicode="&#x440;" horiz-adv-x="533" d="M427 168q0 -50 -32 -90q-34 -44 -82 -44q-31 0 -60 8q-40 12 -41 34q-1 19 -1 52q0 27 3 82.5t3 84t19 51.5t47 23q6 0 52.5 -16.5t71.5 -76.5q20 -49 20 -108zM185 -388q6 20 14 60l13 359q25 -20 43 -25.5t51 -5.5q11 0 30 4.5t28 4.5q84 37 122 84q41 54 41 140 q0 21 -15 65.5t-28 57.5q-57 58 -134 58q-38 0 -82 -24l-47 -26q2 34 9 101h-13q-37 -34 -103 -56q-55 -19 -111 -38l5 -10q5 0 16.5 1t17.5 1q26 0 40 -11l16 -20q3 -196 3 -208q0 -96 -6 -429q-9 -25 -18.5 -75.5t-18.5 -73.5q-15 -38 -45 -62q23 0 62 19.5t56 37.5 q12 17 41 47z" />
<glyph unicode="&#x441;" horiz-adv-x="419" d="M411 80l-16 -27q-78 -53 -148 -53q-99 0 -169 63.5t-70 161.5q0 32 12 63q16 47 88 89q69 39 121 39q15 0 42.5 -7.5t41.5 -7.5t41 18h23q-7 -17 -7 -47q0 -41 7 -95q-7 -5 -21 -5q-9 49 -51.5 78t-94.5 29q-50 0 -80 -62q-24 -50 -24 -107q0 -76 50 -126.5t126 -50.5 q32 0 67 16q31 16 62 31z" />
<glyph unicode="&#x442;" horiz-adv-x="693" d="M438 0q19 28 48 55q44 41 45 43q50 52 50 134q0 121 -119 121q-2 0 -15 -5l-24 -17q6 -21 6 -39q0 -44 -21 -124t-42 -120q-11 -22 -44 -37q-9 -4 -24 -17q43 85 43 237q0 121 -119 121q-2 0 -15 -5l-7 -11q-28 -2 -31 -52v-21q0 -36 1 -100q2 -72 3 -101q8 -4 59 -38 l-2 -24q-13 1 -32.5 9t-30.5 8q-71 0 -92 -17q-34 0 -50 5q5 8 29 20q21 9 28 33q3 9 3 91q0 19 2.5 57t2.5 57q0 -12 -4 104q-6 7 -26 8.5t-27 12.5v12q6 8 15 9q6 1 18 -1t16 -2q12 0 35.5 3.5t35.5 3.5q8 0 24 -12l2 -7q0 -5 -2.5 -14t-2.5 -14q0 -3 2 -9q48 36 61 42 q28 14 75 14q21 0 53 -21q28 -19 45 -39q46 37 63 45q31 16 79 16q41 0 79 -40.5t38 -80.5q0 -52 -60 -140q-57 -82 -107 -118l15 -4q30 2 76 29q40 24 69 51q6 -36 17 -108q-41 0 -120.5 -1.5t-120.5 -1.5z" />
<glyph unicode="&#x443;" horiz-adv-x="555" d="M629 438q0 -32 -12 -43q-19 -12 -38 -25q-99 -80 -228 -324q-34 -65 -132 -198q-94 -129 -171 -196q-117 -101 -230 -101q-114 0 -191 33q-41 18 -103 67q-50 41 -88 48v19h228q13 0 37 16l11 -10q-14 -11 -29 -22q-19 -16 -19 -28q0 -20 77 -42q67 -20 97 -20 q14 0 63 17q71 24 110 47q49 30 89 80q24 25 68 77q67 86 124 182q-42 45 -105 150q-40 79 -93 172q-62 61 -85 67v14q5 4 11 4q7 0 20.5 -4t20.5 -4l108 2q19 0 57.5 7t44.5 7q11 0 24 -18q-18 -13 -43 -15q-29 -41 -29 -74q0 -29 51 -115t67 -86q31 0 79 93q45 87 45 122 t-22 51q-12 8 -54 21v15l7 4q6 0 16.5 -4t15.5 -4q14 0 40.5 2t40.5 2q12 0 37 -2t37 -2q6 0 22 8.5t24 9.5z" />
<glyph unicode="&#x444;" horiz-adv-x="760" d="M651 168q0 -50 -32 -90q-34 -44 -82 -44q-31 0 -60 8q-40 12 -41 34q-1 19 -1 52q0 27 3 82.5t3 84t19 51.5t47 23q6 0 52.5 -16.5t71.5 -76.5q20 -49 20 -108zM409 -388q6 20 14 60l13 359q25 -20 43 -25.5t51 -5.5q11 0 30 4.5t28 4.5q84 37 122 84q41 54 41 140 q0 21 -15 65.5t-28 57.5q-57 58 -134 58q-38 0 -82 -24l-47 -26q2 34 -62 -12h-13q34 79 -32 57q-55 -19 -111 -38l5 -10q5 0 16.5 1t17.5 1q26 0 40 -11l16 -20q3 -196 3 -208q0 -96 -6 -429q-9 -25 77 -107zM223 40q-48 0 -82 44q-32 41 -32 90q0 59 21 108q24 60 72 77 q45 17 51 17q16 0 35.5 -14t25.5 -29q3 -9 3 -64q0 -22 4 -68t4 -69l-1 -50q0 -22 -41 -34q-29 -8 -60 -8zM365 -406q10 -7 21 -22q15 -21 19 -25q17 -18 56 -37.5t62 -19.5q-30 24 -45 63q-9 23 -18.5 73.5t-18.5 74.5q-6 326 -6 429q0 13 3 208l16 21q15 10 36 10 q-49 -1 38 -1l5 9q-56 19 -111 38q-66 23 -48 -63h-13q1 85 -45 18q-23 13 -45 26q-43 24 -85 24q-77 0 -134 -58q-13 -13 -28 -57.5t-15 -65.5q0 -86 42 -140q37 -47 121 -83q9 -1 28 -5.5t30 -4.5q53 0 94 31l14 -359q6 -19 13 -60z" />
<glyph unicode="&#x445;" horiz-adv-x="569" d="M574 426q-120 -64 -232 -202q35 -72 113 -168q13 -15 39 -24q23 -8 45 -16l-4 -17l-6 -4q-31 0 -92.5 9t-92.5 9q-8 0 -23.5 -6.5t-22.5 -6.5q-6 0 -8 11q1 5 11 19q6 10 6 21q0 38 -16 66q-19 27 -39 55q-3 -5 -57 -62q-44 -47 -44 -59q0 -2 20 -19t22 -35 q-83 10 -89 10q-15 0 -43 -7.5t-43 -8.5l-2 3q0 2 1 5h-16q97 51 137 98q34 32 98 99q-38 77 -116 173q-12 15 -39 24q-23 8 -45 16l4 17l7 4q30 0 91.5 -9t92.5 -9q8 0 23.5 6.5t23.5 6.5q5 0 8 -11q-2 -5 -11 -19q-7 -10 -7 -21q0 -38 18.5 -67.5t39.5 -58.5q1 3 57 62 q42 46 42 64q0 2 -20.5 19t-21.5 35q82 -10 89 -10q44 0 81 15l7 -3l-2 -6q5 0 16 2z" />
<glyph unicode="&#x446;" horiz-adv-x="532" d="M23 415q116 -32 172 -106q41 -68 41 -196l-9 -121h109l-91 -2h3l54 -2l48 7l-5 36v43q0 251 154 337l16 4h4q-58 -57 -80 -152q-22 -101 -22 -182q0 -36 9 -91h84l2 -49l-31 -97l-27 99l-388 -1l-4 5v39l4 4h76q18 63 18 115v32q0 160 -102 252q-29 22 -35 22v4z" />
<glyph unicode="&#x447;" horiz-adv-x="370" d="M152 415l2 -3v-30l-22 -11q-39 -36 -39 -78v-3q0 -68 67 -103q21 -7 38 -7h60v75l1 120q-22 14 -29 21v16l2 3h113l3 -3v-17q-9 -9 -28 -20v-346l27 -2v-24l-3 -3h-112l-2 3v24h28v109q-167 0 -232 71q-16 25 -16 52v4q0 59 63 110q-33 17 -33 19l1 20l-1 1l1 2h111z" />
<glyph unicode="&#x448;" horiz-adv-x="602" d="M10 409q100 -28 148 -92q36 -58 36 -169l-8 -105h94l2 94v97l2 107q-32 14 -32 17v36l4 4h124l3 -4v-36l-24 -17v-300h2l47 -2l41 6l-4 32v37q0 217 133 291l14 4h3q-50 -49 -69 -131q-19 -88 -19 -158q0 -31 8 -79h73l4 -3v-34l-4 -4h-540l-4 4v34l4 3h65q15 55 15 100 v28q0 138 -88 217q-25 19 -30 19v4z" />
<glyph unicode="&#x449;" horiz-adv-x="628" d="M26 412q101 -28 150 -93q36 -59 36 -170l-8 -106h95l2 94v99l1 108q-32 13 -32 17v36l4 4h125l4 -4v-36l-25 -17v-303h2l47 -2l42 6l-4 32v38q0 218 135 293l13 4h4q-51 -50 -70 -133q-19 -88 -19 -159q0 -31 7 -79h78v-42l-21 -77l-23 78h-505l-4 3v34l4 4h66 q15 55 15 100v29q0 139 -89 219q-25 19 -30 19v4z" />
<glyph unicode="&#x44a;" horiz-adv-x="383" d="M319 221q55 -35 55 -104q0 -41 -35 -74q-31 -29 -78 -43q-33 -11 -88 -11q-62 0 -160 30q-2 5 -2 7q0 4 3 7q18 -4 33 -4q8 0 18 10t12 18q10 55 10 184v33q2 23 -6 45q-50 86 -58 -11q-16 39 -6 111l30 -3q37 -18 84 -27q8 0 25.5 4.5t26.5 4.5q6 0 13 -4 q-12 -8 -23.5 -17t-11.5 -23q0 -17 -3 -52t-3 -53q0 -3 6 -7q2 1 15 6q11 4 14 4q80 0 129 -31zM209 23q43 12 68 44t25 72q0 76 -67 89q-32 7 -34 7q-35 0 -47 -18q-8 -12 -9 -46q-3 -81 -3 -109q0 -26 3 -44q17 -5 23 -5q8 0 41 10z" />
<glyph unicode="&#x44b;" horiz-adv-x="502" d="M488 -13l-3 -2h-60q-41 1 -61 1l2 3l-4 5q2 3 17 14q13 9 13 18v250q0 6 -1 20t-1 21l-4 10q-1 2 1 6t1 14l-9 12q-19 21 -25.5 29.5t-12.5 8.5q-2 5 -2 11q45 -7 58.5 -13t42.5 -1l37 21q5 -10 5 -8q-17 -18 -25.5 -26t-8.5 -30l1 -228q0 -8 -1.5 -23.5t-1.5 -23.5 q0 -44 17 -65q2 -4 11.5 -9t13.5 -9v-6zM313 217q55 -35 55 -105q0 -41 -35 -74q-30 -30 -77 -44q-33 -11 -88 -11q-60 0 -158 30q-2 6 -2 7q0 4 3 8q18 -4 33 -4q8 0 17.5 10t11.5 18q11 55 11 186v56q0 38 -12 62q-11 21 -41 51q0 7 5 7h8q28 -27 83 -27q8 0 25 4.5 t26 4.5q6 0 13 -4q-12 -8 -23 -17t-11 -23q0 -17 -3.5 -52.5t-3.5 -53.5q0 -3 7 -7q1 1 15 5q10 4 14 4q79 0 127 -31zM204 17q43 13 68 45t25 73q0 76 -66 90q-32 7 -34 7q-35 0 -47 -18q-8 -13 -9 -47q-3 -82 -3 -110q0 -26 3 -45q17 -5 22 -5q9 0 41 10z" />
<glyph unicode="&#x44c;" horiz-adv-x="393" d="M327 224q56 -35 56 -104q0 -41 -36 -74q-30 -29 -78 -43q-33 -10 -89 -10q-62 0 -161 29q-2 5 -2 7q0 4 3 7q18 -4 33 -4q9 0 18.5 10t11.5 18q11 55 11 184v56q0 38 -12 61q-11 21 -41 51q-1 7 4 7h8q29 -27 84 -27q10 0 27 4.5t26 4.5q6 0 13 -4q-12 -8 -23 -17 t-11 -23q0 -17 -3.5 -52t-3.5 -53q0 -2 6 -6q2 0 15 5q11 4 14 4q81 0 130 -31zM217 26q43 12 68.5 44t25.5 72q0 76 -68 90q-32 6 -34 6q-36 0 -48 -18q-8 -12 -9 -46q-3 -81 -3 -108t3 -45q17 -5 23 -5q8 0 42 10z" />
<glyph unicode="&#x44d;" horiz-adv-x="400" d="M17 216q7 10 14 10q-2 -17 -2 -22q0 -29 15 -29q31 0 64 20q6 4 50 37q27 21 42 21q23 0 51.5 -24.5t32.5 -47.5q-33 31 -43 31q-8 0 -31 -24q-34 -34 -49 -45q-30 -24 -54 -24q-32 0 -64.5 24.5t-32.5 54.5q0 8 7 18zM-132 -13q12 -25 91 -48q68 -21 106 -21q25 0 66 7 q45 8 63 18q45 23 77 102q27 70 27 130q0 47 -23 108q-30 73 -68 73q-11 0 -33.5 -10t-32.5 -18t-25 -32t-26 -33q-4 9 -4 19q19 29 22 73q3 65 5 75q3 -2 20 -31q10 -17 31 -17q5 0 20 10t20 10q24 0 61 -22q54 -34 89 -87q36 -57 36 -118q0 -121 -92 -206 q-89 -83 -212 -83q-111 0 -200 68q-24 17 -24 26q0 5 6 7z" />
<glyph unicode="&#x44e;" horiz-adv-x="502" d="M147 -26l-3 -2h-58q-40 1 -58 1l2 4l-4 4q2 4 16 15q12 8 12 17v250q0 7 -0.5 21t-0.5 20l-4 10q-2 3 0 6.5t1 13.5l-8 12q-19 21 -25 29.5t-11 8.5q-3 5 -3 12q43 -8 56.5 -14t41.5 -1l35 21q5 -9 5 -8q-16 -18 -24 -26t-8 -29v-229q0 -8 -1.5 -23.5t-1.5 -23.5 q0 -44 16 -64q3 -4 12 -9t13 -10v-6zM397 -1q-6 -2 -16.5 -9t-16.5 -9q-26 -9 -48 -9q-50 0 -105 37t-72 84q-10 29 -10 65q0 129 67 197q5 5 17 13.5t18 9.5q38 25 78 25q27 0 58 -7q36 -9 53 -23q14 -12 37 -50.5t27 -56.5q5 -26 5 -79q0 -4 -5 -29q-14 -60 -28.5 -87 t-58.5 -72zM291 381q-62 0 -92 -67q-21 -49 -21 -120q0 -61 30 -112q33 -54 86 -75l19 -7h24q2 0 15 8t15 9q11 11 33 34q8 10 18 53q9 40 9 57q0 26 -3 58q-7 51 -44 103q-42 59 -89 59zM166 233h5q-1 -35 -8 -55t-17 -20q-5 0 -10.5 4.5t-28.5 28.5q-15 17 -21 17 q-8 0 -13 -11.5t-7 -38.5h-4q0 37 7 57t17 20q4 0 9 -5q10 -8 27.5 -27.5t24.5 -19.5q8 0 13 13t6 37z" />
<glyph unicode="&#x44f;" horiz-adv-x="492" d="M-457 -194q10 -1 21 -1q128 0 323 106q10 3 68 51q48 41 68 61q32 32 64 63q37 33 72 50q-154 51 -154 148q0 67 60 94q37 17 117 24q4 0 14.5 2t16.5 2q51 0 139 -17l37 -8q13 0 38.5 6t38.5 6q7 0 14 -10q-8 -10 -24 -16q-21 -8 -26 -12q-9 -7 -13 -10q-31 -17 -41 -62 q-4 -23 -4 -77q0 -10 2.5 -29t2.5 -29q0 7 -2 -64q-1 -38 3 -63q5 -34 45 -64q48 -35 57 -53h-11q-14 14 -70 22q-40 6 -76 6q-24 0 -71 -2.5t-71 -2.5h-14l1 20q98 11 108 31q16 33 16 127q0 30 -2 39q-55 -17 -116 -69q-31 -26 -105 -101q-64 -65 -101 -92 q-102 -72 -250 -88q-5 0 -45 -2q-27 -2 -45 -6q-37 5 -64 5q-21 1 -21 4v11zM143 343q-47 -33 -47 -94q0 -44 37 -68q33 -21 80 -21q79 0 79 62q0 25 -5 69q-5 48 -5 70q-9 11 -36 11q-62 0 -103 -29z" />
<glyph unicode="&#x451;" horiz-adv-x="409" d="M396 62q-21 -30 -81 -48q-49 -14 -96 -14q-74 0 -140 60.5t-66 133.5q0 225 199 225q70 0 123 -54.5t54 -125.5q-23 -12 -81 -12q-28 0 -84.5 4t-84.5 4q-14 0 -23 -7q0 -75 45 -130q48 -60 122 -60q21 0 58 12t55 12zM297 277q0 35 -29 75q-32 44 -65 44q-27 0 -58 -51 q-29 -46 -29 -76q0 -11 5 -15q16 1 34 1q23 0 69 -2.5t68 -2.5q5 12 5 27zM145 484q7 0 13.5 -3.5t10.5 -10.5t4 -14t-3.5 -14t-10.5 -10.5t-14 -3.5t-14 3.5t-10.5 10.5t-3.5 14t4 14t10.5 10.5t13.5 3.5zM263 484q7 0 13.5 -3.5t10.5 -10.5t4 -14t-3.5 -14t-10.5 -10.5 t-14 -3.5t-14 3.5t-10.5 10.5t-3.5 14t4 14t10.5 10.5t13.5 3.5z" />
<glyph unicode="&#x2116;" horiz-adv-x="626" d="M524 224q0 -140 24 -216q10 -32 66 -85v-22q-4 0 -11 -1.5t-11 -1.5q-7 0 -21 5q-18 8 -22 8q-116 160 -188 289q-12 22 -62 129q-36 81 -70 124q-14 52 -54 109q-3 -38 -2 -96q2 -102 2 -96q0 -37 -1.5 -113t-1.5 -113q0 -114 6 -120q-3 -32 43 -51q60 -26 67 -33 l-4 -16q-5 -2 -41 -2q-134 0 -179 -10q-11 -4 -35 -10l-7 7v25q40 22 52 31q33 24 39 45q17 61 17 247q0 52 -1.5 137.5t-1.5 107.5q0 18 2.5 54.5t2.5 55.5q0 8 -23.5 26.5t-33.5 21.5q-22 7 -78 20l-5 24q6 3 14 3q12 0 38.5 -2t39.5 -2t74 -2q44 -1 72 1q65 -85 128 -213 q52 -114 103 -227q13 -26 23 -45q3 14 1 36q-2 31 -2 36q0 37 2 110t2 110q0 77 -20 113q-25 45 -95 61v28l152 1q15 0 45 8.5t46 8.5l14 -13q-8 -16 -32 -29q-28 -15 -38 -29q-18 -24 -20 -73q-1 -31 -9 -180q-6 -111 -6 -181zM887 555q0 -108 -95 -148q-37 -15 -46 -15 h-78q-41 0 -77 51q-35 48 -35 89q0 55 27 97t79 60q41 15 64 15q59 0 109 -44q52 -46 52 -105zM813 543q0 48 -26 88q-28 46 -73 46q-40 0 -63 -52q-18 -41 -18 -86q0 -34 9 -53q13 -27 34 -48q26 -26 51 -26q5 0 14 1.5t14.5 1.5t24.5 23q33 40 33 105z" />
<glyph unicode="&#x222b;" horiz-adv-x="481" d="M452 288q0 -52 -54 -121q-50 -64 -102 -89q-11 -4 -32 -12q-8 -7 -28 -18q-29 -9 -86 -32q-33 -21 -103 -52q5 11 28 40q20 24 24 42q15 57 17 200q0 -5 0 212q0 80 -5 105q-11 59 -55 83v11q51 33 75 35q35 14 100 55q3 -4 3 -12q0 -16 -15 -57t-15 -60q0 -5 3 -14 t3 -13v-226l5 -5q14 13 44 34q11 6 43 17t40 11q56 0 85 -40q25 -35 25 -94zM371 267q0 96 -98 96q-60 0 -60 -64q0 -21 2.5 -62.5t2.5 -61.5q0 -69 -19 -122h10q162 79 162 214z" />
<glyph unicode="&#x25fc;" horiz-adv-x="435" d="M0 435h435v-435h-435v435z" />
</font>
</defs>
</svg>
